<svg xmlns="http://www.w3.org/2000/svg" xmlns:xlink="http://www.w3.org/1999/xlink" xmlns:lucid="lucid" width="720" height="610"><g transform="scale(0.7 0.7)translate(-160 -180)" lucid:page-tab-id="0_0"><path d="M735 308c0 6.63-40.3 12-90 12s-90-5.37-90-12v-96c0-6.63 40.3-12 90-12s90 5.37 90 12z" stroke="#000" stroke-width="2" fill="#fff"/><path d="M735 212c0 6.63-40.3 12-90 12s-90-5.37-90-12" stroke="#000" stroke-width="2" fill="none"/><use xlink:href="#a" transform="matrix(1,0,0,1,560,229) translate(58.49560546875 21.396484375)"/><use xlink:href="#b" transform="matrix(1,0,0,1,560,229) translate(15.28857421875 39.396484375)"/><use xlink:href="#c" transform="matrix(1,0,0,1,560,229) translate(101.70263671875 39.396484375)"/><use xlink:href="#d" transform="matrix(1,0,0,1,560,229) translate(26.09033203125 57.396484375)"/><use xlink:href="#e" transform="matrix(1,0,0,1,560,229) translate(69.29736328125 75.396484375)"/><path d="M558 400h174l58 70-58 70H558l-58-70z" stroke="#000" stroke-width="2" fill="#fff"/><use xlink:href="#f" transform="matrix(1,0,0,1,505,405) translate(140 20.840928819444457)"/><use xlink:href="#g" transform="matrix(1,0,0,1,505,405) translate(37.38330078125 38.84092881944446)"/><use xlink:href="#h" transform="matrix(1,0,0,1,505,405) translate(140 56.84092881944446)"/><use xlink:href="#i" transform="matrix(1,0,0,1,505,405) translate(87.92485894097223 73.06358506944446)"/><use xlink:href="#j" transform="matrix(1,0,0,1,505,405) translate(87.92485894097223 88.84136284722223)"/><use xlink:href="#k" transform="matrix(1,0,0,1,505,405) translate(92.65896267361111 104.619140625)"/><use xlink:href="#l" transform="matrix(1,0,0,1,505,405) translate(64.25434027777777 120.39691840277777)"/><use xlink:href="#m" transform="matrix(1,0,0,1,505,405) translate(121.06358506944444 120.39691840277777)"/><path d="M510 730h270v140H510z" stroke="#000" stroke-width="2" fill="#fff"/><path d="M537 730v140m216-140v140" stroke="#000" stroke-width="2" fill="none"/><use xlink:href="#n" transform="matrix(1,0,0,1,548.75,735) translate(4.68505859375 30.952039930555557)"/><use xlink:href="#o" transform="matrix(1,0,0,1,548.75,735) translate(96.5 47.17469618055556)"/><use xlink:href="#p" transform="matrix(1,0,0,1,548.75,735) translate(16.020236545138886 62.952473958333336)"/><use xlink:href="#q" transform="matrix(1,0,0,1,548.75,735) translate(91.76589626736111 62.952473958333336)"/><use xlink:href="#r" transform="matrix(1,0,0,1,548.75,735) translate(120.17051866319446 62.952473958333336)"/><use xlink:href="#s" transform="matrix(1,0,0,1,548.75,735) translate(20.75434027777777 78.73025173611111)"/><use xlink:href="#t" transform="matrix(1,0,0,1,548.75,735) translate(87.03179253472223 78.73025173611111)"/><use xlink:href="#p" transform="matrix(1,0,0,1,548.75,735) translate(20.75434027777777 94.5080295138889)"/><use xlink:href="#u" transform="matrix(1,0,0,1,548.75,735) translate(96.5 94.5080295138889)"/><use xlink:href="#v" transform="matrix(1,0,0,1,548.75,735) translate(30.222547743055543 110.28580729166667)"/><use xlink:href="#w" transform="matrix(1,0,0,1,548.75,735) translate(96.5 110.28580729166667)"/><path d="M510 580h270v100H510z" stroke="#000" stroke-width="2" fill="#fff"/><use xlink:href="#x" transform="matrix(1,0,0,1,515,585) translate(38.18505859375 24.507595486111114)"/><use xlink:href="#y" transform="matrix(1,0,0,1,515,585) translate(32.7841796875 42.507595486111114)"/><use xlink:href="#h" transform="matrix(1,0,0,1,515,585) translate(130 60.507595486111114)"/><use xlink:href="#z" transform="matrix(1,0,0,1,515,585) translate(11.647406684027786 76.73025173611111)"/><use xlink:href="#q" transform="matrix(1,0,0,1,515,585) translate(134.73410373263886 76.73025173611111)"/><use xlink:href="#A" transform="matrix(1,0,0,1,515,585) translate(163.13872612847223 76.73025173611111)"/><path d="M975 800c0 38.66-30.22 70-67.5 70S840 838.66 840 800s30.22-70 67.5-70 67.5 31.34 67.5 70z" stroke="#000" stroke-width="2" fill="#fff"/><use xlink:href="#B" transform="matrix(1,0,0,1,844.9999999999999,735) translate(35.99560546875 70.396484375)"/><path d="M792.3 470h115.2v240.5" stroke="#000" stroke-width="2" fill="none"/><path d="M792.32 471h-1.85l.83-1-.83-1h1.85z"/><path d="M907.5 725.76l-4.64-14.26h9.28z" stroke="#000" stroke-width="2"/><path d="M960 640h180v80H960z" stroke="#000" stroke-width="2" fill="#fff"/><use xlink:href="#C" transform="matrix(1,0,0,1,965,645) translate(20.689453125 31.396484375)"/><use xlink:href="#D" transform="matrix(1,0,0,1,965,645) translate(36.89208984375 49.396484375)"/><path d="M940 500h220v100H940z" stroke="#000" stroke-width="2" fill="#fff"/><path d="M962 500v100m176-100v100" stroke="#000" stroke-width="2" fill="none"/><use xlink:href="#E" transform="matrix(1,0,0,1,972.5,505) translate(2.3876953125 25.61870659722223)"/><use xlink:href="#h" transform="matrix(1,0,0,1,972.5,505) translate(78 43.61870659722223)"/><use xlink:href="#F" transform="matrix(1,0,0,1,972.5,505) translate(21.190755208333343 59.84136284722223)"/><use xlink:href="#G" transform="matrix(1,0,0,1,972.5,505) translate(59.06358506944444 75.619140625)"/><path d="M1050 602v18.5" stroke="#000" stroke-width="2" fill="none"/><path d="M1051 602.03h-2V601h2z"/><path d="M1050 635.76l-4.64-14.26h9.28z" stroke="#000" stroke-width="2"/><path d="M645 322v58.5" stroke="#000" stroke-width="2" fill="none"/><path d="M645 321h1v1.03h-2v-1.06z"/><path d="M645 395.76l-4.64-14.26h9.28z" stroke="#000" stroke-width="2"/><path d="M230 920h175c13.8 0 25 22.95 25 51.25s-11.2 51.25-25 51.25H230l-50-51.25z" stroke="#000" stroke-width="2" fill="#fff"/><use xlink:href="#H" transform="matrix(1,0,0,1,185,925) translate(38.98681640625 27.11870659722223)"/><use xlink:href="#h" transform="matrix(1,0,0,1,185,925) translate(120 45.11870659722223)"/><use xlink:href="#I" transform="matrix(1,0,0,1,185,925) translate(34.7861328125 61.34136284722223)"/><use xlink:href="#J" transform="matrix(1,0,0,1,185,925) translate(129.46820746527777 61.34136284722223)"/><use xlink:href="#K" transform="matrix(1,0,0,1,185,925) translate(48.98844401041666 77.119140625)"/><use xlink:href="#L" transform="matrix(1,0,0,1,185,925) translate(124.73410373263889 77.119140625)"/><path d="M200 360h280v80H200z" stroke="#000" stroke-width="2" fill="#fff"/><use xlink:href="#M" transform="matrix(1,0,0,1,205,365) translate(10.77978515625 24.61870659722222)"/><use xlink:href="#N" transform="matrix(1,0,0,1,205,365) translate(135 40.84136284722222)"/><use xlink:href="#O" transform="matrix(1,0,0,1,205,365) translate(11.9133029513889 56.619140625)"/><use xlink:href="#P" transform="matrix(1,0,0,1,205,365) translate(97.1271701388889 56.619140625)"/><use xlink:href="#Q" transform="matrix(1,0,0,1,205,365) translate(220.2138671875 56.619140625)"/><path d="M498.37 405.38l.97.66 3.27 2.82 4.96 5.34 6.9 8.1" stroke="#000" stroke-width="2" fill="none"/><path d="M484.1 400.96l15-.2-2.75 8.84zM524.75 433.54l-13.04-7.4 6.85-6.26z" stroke="#000" stroke-width="2"/><path d="M430 308c0 6.63-40.3 12-90 12s-90-5.37-90-12v-96c0-6.63 40.3-12 90-12s90 5.37 90 12z" stroke="#000" stroke-width="2" fill="#fff"/><path d="M430 212c0 6.63-40.3 12-90 12s-90-5.37-90-12" stroke="#000" stroke-width="2" fill="none"/><g><use xlink:href="#R" transform="matrix(1,0,0,1,254.99999999999997,229) translate(20.689453125 39.396484375)"/><use xlink:href="#S" transform="matrix(1,0,0,1,254.99999999999997,229) translate(63.896484375 57.396484375)"/></g><path d="M340 358v-18.5" stroke="#000" stroke-width="2" fill="none"/><path d="M341 359h-2v-1.03h2z"/><path d="M340 324.24l4.64 14.26h-9.28z" stroke="#000" stroke-width="2"/><path d="M432 260.02l2.4.05 3.14.2 2.9.3 2.7.4 2.5.48 2.4.56 2.24.63 2.14.7 2.06.76 1.97.82 1.9.9 1.86.97 1.82 1.03 1.77 1.13 1.73 1.2 1.73 1.32 1.7 1.42 1.73 1.54 1.7 1.7 1.76 1.85 1.77 2.05 1.82 2.3 1.9 2.6 1.97 2.98 2.1 3.5 2.3 4.2 2.62 5.25 3.2 7.2 5 12.72 14.43 38.53 4 9.02 3.47 7 3.2 5.83 3.06 5.05 2.97 4.48 2.92 4.03 2.9 3.67.17.2" stroke="#000" stroke-width="2" fill="none"/><path d="M432.05 259.02l-.04 2-1-.02v-2z"/><path d="M544.73 409.4l-13.35-6.84 6.57-6.54z" stroke="#000" stroke-width="2"/><path d="M508 800h-81" stroke="#000" stroke-width="2" fill="none"/><path d="M509 801h-1.03v-2H509z"/><path d="M411.74 800l14.26-4.64v9.28z" stroke="#000" stroke-width="2"/><path d="M202.5 730h205v140h-205z" stroke="#000" stroke-width="2" fill="#fff"/><g><use xlink:href="#H" transform="matrix(1,0,0,1,207.5,735) translate(16.48681640625 54.61870659722222)"/><use xlink:href="#T" transform="matrix(1,0,0,1,207.5,735) translate(97.5 70.84136284722223)"/><use xlink:href="#U" transform="matrix(1,0,0,1,207.5,735) translate(21.754340277777786 86.619140625)"/><use xlink:href="#V" transform="matrix(1,0,0,1,207.5,735) translate(69.09537760416669 86.619140625)"/></g><path d="M799.5 800h21" stroke="#000" stroke-width="2" fill="none"/><path d="M784.24 800l14.26-4.64v9.28zM835.76 800l-14.26 4.64v-9.28z" stroke="#000" stroke-width="2"/><path d="M1050 722v78h-55.5" stroke="#000" stroke-width="2" fill="none"/><path d="M1051 722.03h-2V721h2z"/><path d="M979.24 800l14.26-4.64v9.28z" stroke="#000" stroke-width="2"/><path d="M645 682v28.5" stroke="#000" stroke-width="2" fill="none"/><path d="M646 682.03h-2V681h2z"/><path d="M645 725.76l-4.64-14.26h9.28z" stroke="#000" stroke-width="2"/><path d="M305 872v28.5" stroke="#000" stroke-width="2" fill="none"/><path d="M306 872.03h-2V871h2z"/><path d="M305 915.76l-4.64-14.26h9.28z" stroke="#000" stroke-width="2"/><path d="M810 200h350v220H810z" fill="#fff"/><path d="M829.44 200h19.45m9.7 0h19.46m9.72 0h19.44m9.72 0h19.45m9.7 0h19.46m9.72 0h19.44m9.72 0h19.45m9.7 0h19.46m9.72 0h19.44m9.72 0h19.45m9.7 0h19.46m9.72 0h9.72v10.48m0 10.47v20.95m0 10.48v20.95m0 10.48v20.96m0 10.48v20.95m0 10.47v20.95m0 10.48v20.95m0 10.47V420h-9.72m-9.72 0h-19.45m-9.7 0h-19.46m-9.72 0h-19.44m-9.72 0h-19.45m-9.7 0h-19.46m-9.72 0h-19.44m-9.72 0H946.1m-9.7 0h-19.46m-9.72 0h-19.44m-9.72 0H858.6m-9.7 0h-19.46m-9.72 0H810v-10.48m0-10.47V378.1m0-10.48v-20.95m0-10.48v-20.96m0-10.48V283.8m0-10.47v-20.95m0-10.48v-20.95m0-10.47V200h9.72" stroke="#000" stroke-width="2" fill="none"/><g><use xlink:href="#W" transform="matrix(1,0,0,1,815,205) translate(126.79296875 27.063151041666686)"/><use xlink:href="#f" transform="matrix(1,0,0,1,815,205) translate(18 45.063151041666686)"/><use xlink:href="#X" transform="matrix(1,0,0,1,815,205) translate(18 63.063151041666686)"/><use xlink:href="#Y" transform="matrix(1,0,0,1,815,205) translate(18 79.28580729166669)"/><use xlink:href="#Z" transform="matrix(1,0,0,1,815,205) translate(93.74565972222223 79.28580729166669)"/><use xlink:href="#aa" transform="matrix(1,0,0,1,815,205) translate(169.49131944444446 79.28580729166669)"/><use xlink:href="#ab" transform="matrix(1,0,0,1,815,205) translate(207.36414930555557 79.28580729166669)"/><use xlink:href="#ac" transform="matrix(1,0,0,1,815,205) translate(18 95.06358506944446)"/><use xlink:href="#ad" transform="matrix(1,0,0,1,815,205) translate(112.68207465277777 95.06358506944446)"/><use xlink:href="#ae" transform="matrix(1,0,0,1,815,205) translate(160.02311197916666 95.06358506944446)"/><use xlink:href="#af" transform="matrix(1,0,0,1,815,205) translate(207.36414930555554 95.06358506944446)"/><use xlink:href="#ag" transform="matrix(1,0,0,1,815,205) translate(18 110.84136284722223)"/><use xlink:href="#ah" transform="matrix(1,0,0,1,815,205) translate(18 128.396484375)"/><use xlink:href="#ai" transform="matrix(1,0,0,1,815,205) translate(18 144.619140625)"/><use xlink:href="#Z" transform="matrix(1,0,0,1,815,205) translate(93.74565972222223 144.619140625)"/><use xlink:href="#aa" transform="matrix(1,0,0,1,815,205) translate(169.49131944444446 144.619140625)"/><use xlink:href="#aj" transform="matrix(1,0,0,1,815,205) translate(207.36414930555557 144.619140625)"/><use xlink:href="#ak" transform="matrix(1,0,0,1,815,205) translate(18 160.39691840277777)"/><use xlink:href="#al" transform="matrix(1,0,0,1,815,205) translate(18 177.95203993055554)"/><use xlink:href="#am" transform="matrix(1,0,0,1,815,205) translate(18 194.17469618055554)"/><use xlink:href="#an" transform="matrix(1,0,0,1,815,205) translate(74.80924479166667 194.17469618055554)"/><use xlink:href="#ao" transform="matrix(1,0,0,1,815,205) translate(112.68207465277779 194.17469618055554)"/><use xlink:href="#aa" transform="matrix(1,0,0,1,815,205) translate(160.02311197916669 194.17469618055554)"/><use xlink:href="#ap" transform="matrix(1,0,0,1,815,205) translate(197.8959418402778 194.17469618055554)"/></g><path d="M510 920h270v102.5H510z" stroke="#000" stroke-width="2" fill="#fff"/><g><use xlink:href="#aq" transform="matrix(1,0,0,1,515,925) translate(97.5947265625 28.229817708333336)"/><use xlink:href="#T" transform="matrix(1,0,0,1,515,925) translate(130 44.452473958333336)"/><use xlink:href="#ar" transform="matrix(1,0,0,1,515,925) translate(11.647406684027786 60.230251736111114)"/><use xlink:href="#as" transform="matrix(1,0,0,1,515,925) translate(96.86127387152779 60.230251736111114)"/><use xlink:href="#at" transform="matrix(1,0,0,1,515,925) translate(210.4797634548611 60.230251736111114)"/><use xlink:href="#au" transform="matrix(1,0,0,1,515,925) translate(30.583821614583343 76.00802951388889)"/><use xlink:href="#av" transform="matrix(1,0,0,1,515,925) translate(68.45665147569446 76.00802951388889)"/><use xlink:href="#aw" transform="matrix(1,0,0,1,515,925) translate(115.79768880208334 76.00802951388889)"/><use xlink:href="#ax" transform="matrix(1,0,0,1,515,925) translate(153.67051866319446 76.00802951388889)"/><use xlink:href="#ay" transform="matrix(1,0,0,1,515,925) translate(210.47976345486111 76.00802951388889)"/></g><path d="M510.36 506.4H460V795c-2.76 0-5 2.24-5 5s2.24 5 5 5v166.25h30.5" stroke="#000" stroke-width="2" fill="none"/><path d="M525.63 506.4l-14.27 4.64v-9.27zM505.76 971.25l-14.26 4.64v-9.3z" stroke="#000" stroke-width="2"/><path d="M645 872v28.5" stroke="#000" stroke-width="2" fill="none"/><path d="M646 872.03h-2V871h2z"/><path d="M645 915.76l-4.64-14.26h9.28z" stroke="#000" stroke-width="2"/><path d="M497.7 470H305v240.5" stroke="#000" stroke-width="2" fill="none"/><path d="M498.7 470l.83 1h-1.85v-2h1.85z"/><path d="M305 725.76l-4.64-14.26h9.28z" stroke="#000" stroke-width="2"/><defs><path d="M285-1169c8 382 2 780 4 1169H129v-1349h237c86 239 188 461 253 720 69-258 169-481 255-720h225V0H937c2-390-5-788 6-1169-75 255-170 488-259 729H547c-90-240-185-475-262-729" id="az"/><path d="M912-211c-10-84-18-177-18-274v-864h172V0H836L316-1130c7 79 16 167 16 254V0H162v-1349h222" id="aA"/><path d="M202-1349h823v156H709v1037h316V0H202v-156h316v-1037H202v-156" id="aB"/><path d="M614-1226c-167 1-283 53-283 213 0 183 186 193 334 234 230 63 463 120 463 409 0 286-219 387-518 390C309 23 131-98 79-338l185-37c34 165 149 248 351 246 184-2 324-58 324-238 0-203-207-221-372-266-210-57-422-111-422-377 0-267 201-356 470-360 279-5 430 101 480 324l-188 33c-28-141-121-215-293-213" id="aC"/><path d="M709-1193V0H519v-1193H76v-156h1076v156H709" id="aD"/><g id="a"><use transform="matrix(0.0087890625,0,0,0.0087890625,0,0)" xlink:href="#az"/><use transform="matrix(0.0087890625,0,0,0.0087890625,10.8017578125,0)" xlink:href="#aA"/><use transform="matrix(0.0087890625,0,0,0.0087890625,21.603515625,0)" xlink:href="#aB"/><use transform="matrix(0.0087890625,0,0,0.0087890625,32.4052734375,0)" xlink:href="#aC"/><use transform="matrix(0.0087890625,0,0,0.0087890625,43.20703125,0)" xlink:href="#aD"/></g><path d="M385-1193v494h676v158H385V0H194v-1349h891v156H385" id="aE"/><path d="M1000-272c3 95 12 159 101 161 21 0 41-3 59-7V-6c-44 10-86 16-139 16-141 2-191-84-197-217h-6C748-76 648 20 446 20c-207 0-318-120-318-322 0-266 194-348 454-354l236-4c12-191-40-305-222-305-140 0-220 47-232 172l-188-17c33-204 181-292 423-292 255 0 401 118 401 364v466zm-683-27c0 109 63 184 175 182 166-3 259-96 306-217 24-65 20-120 20-200-232 7-501-28-501 235" id="aF"/><path d="M873-819c-18-114-119-146-250-146-163 0-245 50-245 151 0 151 170 148 294 185 182 54 388 94 388 320 0 240-189 325-439 329-245 4-410-69-454-268l159-31c24 133 136 168 295 165 144-2 270-31 270-171 0-164-195-160-331-202-167-52-350-87-350-299 0-218 173-315 413-313 220 2 373 77 412 260" id="aG"/><path d="M648-963c-190 6-283 138-283 336V0H185v-1484h181c-2 197 6 404-9 587h3c62-120 159-205 339-205 242 0 351 135 350 381V0H868v-695c1-168-57-273-220-268" id="aH"/><path d="M745-142h380V0H143v-142h422v-798H246v-142h499v940zM545-1292v-192h200v192H545" id="aI"/><path d="M615-1102c343 0 484 203 482 560-1 347-147 562-488 562-336 0-475-219-479-562-4-349 156-560 485-560zm-8 989c240 0 301-180 301-429 0-245-55-427-290-427-236 0-299 181-299 427 0 243 61 429 288 429" id="aJ"/><path d="M706-1102c241 0 344 136 343 381V0H868v-695c1-168-57-273-220-268-190 6-283 138-283 336V0H185c-3-360 6-732-6-1082h170c4 54 7 126 8 185h3c63-121 164-204 346-205" id="aK"/><g id="b"><use transform="matrix(0.0087890625,0,0,0.0087890625,0,0)" xlink:href="#aE"/><use transform="matrix(0.0087890625,0,0,0.0087890625,10.8017578125,0)" xlink:href="#aF"/><use transform="matrix(0.0087890625,0,0,0.0087890625,21.603515625,0)" xlink:href="#aG"/><use transform="matrix(0.0087890625,0,0,0.0087890625,32.4052734375,0)" xlink:href="#aH"/><use transform="matrix(0.0087890625,0,0,0.0087890625,43.20703125,0)" xlink:href="#aI"/><use transform="matrix(0.0087890625,0,0,0.0087890625,54.0087890625,0)" xlink:href="#aJ"/><use transform="matrix(0.0087890625,0,0,0.0087890625,64.810546875,0)" xlink:href="#aK"/></g><g id="c"><use transform="matrix(0.0087890625,0,0,0.0087890625,0,0)" xlink:href="#az"/><use transform="matrix(0.0087890625,0,0,0.0087890625,10.8017578125,0)" xlink:href="#aA"/><use transform="matrix(0.0087890625,0,0,0.0087890625,21.603515625,0)" xlink:href="#aB"/><use transform="matrix(0.0087890625,0,0,0.0087890625,32.4052734375,0)" xlink:href="#aC"/><use transform="matrix(0.0087890625,0,0,0.0087890625,43.20703125,0)" xlink:href="#aD"/></g><path d="M650-1214c-281 0-336 244-336 533 0 295 60 546 347 546 188 0 263-142 322-282l159 65C1058-155 935 20 659 20c-401 0-546-295-546-701 0-407 135-689 536-689 264 0 391 146 466 335l-168 65c-47-129-127-244-297-244" id="aL"/><path d="M1034 0L896-382H333L196 0H0l510-1349h217L1228 0h-194zM847-531c-77-225-157-447-231-674-69 231-154 451-232 674h463" id="aM"/><path d="M1121-976c0 225-142 341-344 379L1177 0H957L591-575H353V0H162v-1349h482c281 3 477 100 477 373zM633-726c181-1 296-73 296-247 0-149-101-223-304-223H353v470h280" id="aN"/><path d="M148-1120c216-7 379-89 463-229h166v1204h353V0H157v-145h439v-1021c-79 124-254 184-448 194v-148" id="aO"/><path d="M1065-1013c47 164 49 500-1 665C999-130 875 20 611 20c-377 0-484-300-487-695-2-245 41-425 141-551 77-98 191-144 352-144 261 0 386 140 448 357zM741-155c199-92 203-504 159-785-26-168-96-284-283-284-281 0-308 256-311 549-2 181 18 324 80 428 46 77 115 118 227 120 47 0 90-10 128-28zM496-555v-249h235v249H496" id="aP"/><path d="M114 20l821-1504h178L296 20H114" id="aQ"/><g id="d"><use transform="matrix(0.0087890625,0,0,0.0087890625,0,0)" xlink:href="#aL"/><use transform="matrix(0.0087890625,0,0,0.0087890625,10.8017578125,0)" xlink:href="#aB"/><use transform="matrix(0.0087890625,0,0,0.0087890625,21.603515625,0)" xlink:href="#aE"/><use transform="matrix(0.0087890625,0,0,0.0087890625,32.4052734375,0)" xlink:href="#aM"/><use transform="matrix(0.0087890625,0,0,0.0087890625,43.20703125,0)" xlink:href="#aN"/><use transform="matrix(0.0087890625,0,0,0.0087890625,54.0087890625,0)" xlink:href="#aO"/><use transform="matrix(0.0087890625,0,0,0.0087890625,64.810546875,0)" xlink:href="#aP"/><use transform="matrix(0.0087890625,0,0,0.0087890625,75.6123046875,0)" xlink:href="#aQ"/><use transform="matrix(0.0087890625,0,0,0.0087890625,86.4140625,0)" xlink:href="#aO"/><use transform="matrix(0.0087890625,0,0,0.0087890625,97.2158203125,0)" xlink:href="#aP"/><use transform="matrix(0.0087890625,0,0,0.0087890625,108.017578125,0)" xlink:href="#aP"/></g><path d="M496 0v-299h235V0H496" id="aR"/><g id="e"><use transform="matrix(0.0087890625,0,0,0.0087890625,0,0)" xlink:href="#aR"/><use transform="matrix(0.0087890625,0,0,0.0087890625,10.8017578125,0)" xlink:href="#aR"/><use transform="matrix(0.0087890625,0,0,0.0087890625,21.603515625,0)" xlink:href="#aR"/></g><path d="M802-909c-3-189-2-383-2-575h281v1248c-1 83 4 168 8 236H817c-9-50-14-117-15-176h-4C735-49 651 20 482 20 191 20 97-238 97-539c0-243 66-432 221-519 50-28 108-42 175-42 162 2 253 78 309 191zm-70 658c91-113 93-462 2-584-46-61-145-100-224-53-96 56-119 190-120 349 0 123 17 214 52 275 46 82 130 115 222 74 25-12 46-33 68-61" id="aS"/><path d="M775-193C708-75 621 20 439 20 226 20 106-93 106-306c0-251 170-341 417-346l223-4c4-143-12-264-148-264-103 0-141 58-150 153l-293-14c37-219 194-321 455-321 263 0 418 130 417 390v392c1 84 5 161 89 160 21 0 42-2 62-6v152c-57 15-108 27-180 26-145 0-202-73-217-205h-6zm-256 17c168 0 234-139 227-325-166 4-347-25-347 173 0 94 33 152 120 152" id="aT"/><path d="M711 13c-250 0-386-99-385-349l2-556H161v-190h181l88-282h176v282h385v190H606v530c-10 130 45 186 174 184 91-2 176-11 255-27v186C933-1 833 13 711 13" id="aU"/><path d="M616-1349c316 3 526 118 526 426 0 301-201 442-514 447H431V0H136v-1349h480zm-25 646c164 1 254-62 254-215 0-157-99-200-262-202H431v417h160" id="aV"/><path d="M875-1102c70 0 148 7 206 17v237c-110-17-267-37-359 15-123 69-192 207-192 395V0H250c-10-367 32-789-52-1082h271c19 69 36 149 46 228h4c52-151 151-250 356-248" id="aW"/><path d="M616-1102c361 0 521 202 521 560 0 354-171 562-527 562C259 20 92-192 92-542c0-351 169-560 524-560zm-9 930c200-2 236-165 236-370 0-199-27-367-223-367-195 0-233 146-233 367 0 129 18 223 55 282s92 88 165 88" id="aX"/><path d="M1109-360C1066-122 902 20 624 20c-347 0-514-209-514-555 0-353 168-567 518-567 270 0 425 136 473 361l-283 14c-16-106-75-183-196-182-75 0-130 31-165 93s-52 152-52 270c0 249 74 374 221 374 120 0 188-82 201-201" id="aY"/><path d="M1113-274C1038-96 884 20 626 20c-352 0-526-209-526-566 0-358 185-556 530-556 358 0 496 251 499 615H395c5 180 68 319 245 319 102 0 186-45 208-129zM857-663c-6-177-128-307-315-247-94 30-141 121-145 247h460" id="aZ"/><path d="M622-916c-112 2-200 14-200 111 0 90 89 101 168 121 234 58 514 77 514 368C1104-4 751 54 434 5 267-21 161-112 121-270l247-37c24 111 113 145 252 141 114-3 226-12 226-124 0-101-103-113-192-134-225-54-490-76-490-351 0-247 201-328 458-328 245 0 413 88 457 292l-249 26c-16-98-92-133-208-131" id="ba"/><path d="M470 0v-305h289V0H470" id="bb"/><path d="M766 0H467L3-1349h308c102 347 212 687 307 1041 91-356 204-694 304-1041h305" id="bc"/><path d="M496-1349c439 0 656 222 653 664C1146-265 969 0 556 0H135v-1349h361zm36 1121c245-7 319-187 320-457 1-273-91-439-361-436h-61v893h102" id="bd"/><path d="M794-190h353V0H118v-190h395v-1104H223v-190h571v1294" id="be"/><path d="M471 20c-247 0-336-169-336-415v-687h281v607c4 148 31 285 172 285 152 0 207-150 207-312v-580h281c4 359-9 736 8 1082H816c-7-63-11-146-12-215h-5C736-76 644 20 471 20" id="bf"/><path d="M470 0v-305h289V0H470zm0-780v-305h289v305H470" id="bg"/><g id="g"><use transform="matrix(0.0087890625,0,0,0.0087890625,0,0)" xlink:href="#aS"/><use transform="matrix(0.0087890625,0,0,0.0087890625,10.8017578125,0)" xlink:href="#aT"/><use transform="matrix(0.0087890625,0,0,0.0087890625,21.603515625,0)" xlink:href="#aU"/><use transform="matrix(0.0087890625,0,0,0.0087890625,32.4052734375,0)" xlink:href="#aT"/><use transform="matrix(0.0087890625,0,0,0.0087890625,43.20703125,0)" xlink:href="#aV"/><use transform="matrix(0.0087890625,0,0,0.0087890625,54.0087890625,0)" xlink:href="#aW"/><use transform="matrix(0.0087890625,0,0,0.0087890625,64.810546875,0)" xlink:href="#aX"/><use transform="matrix(0.0087890625,0,0,0.0087890625,75.6123046875,0)" xlink:href="#aY"/><use transform="matrix(0.0087890625,0,0,0.0087890625,86.4140625,0)" xlink:href="#aZ"/><use transform="matrix(0.0087890625,0,0,0.0087890625,97.2158203125,0)" xlink:href="#ba"/><use transform="matrix(0.0087890625,0,0,0.0087890625,108.017578125,0)" xlink:href="#ba"/><use transform="matrix(0.0087890625,0,0,0.0087890625,118.8193359375,0)" xlink:href="#bb"/><use transform="matrix(0.0087890625,0,0,0.0087890625,129.62109375,0)" xlink:href="#bc"/><use transform="matrix(0.0087890625,0,0,0.0087890625,140.4228515625,0)" xlink:href="#bd"/><use transform="matrix(0.0087890625,0,0,0.0087890625,151.224609375,0)" xlink:href="#aV"/><use transform="matrix(0.0087890625,0,0,0.0087890625,162.0263671875,0)" xlink:href="#be"/><use transform="matrix(0.0087890625,0,0,0.0087890625,172.828125,0)" xlink:href="#bf"/><use transform="matrix(0.0087890625,0,0,0.0087890625,183.6298828125,0)" xlink:href="#ba"/><use transform="matrix(0.0087890625,0,0,0.0087890625,194.431640625,0)" xlink:href="#bg"/></g><path d="M473-1349c438-1 655 221 652 661C1122-268 945-8 532 0H162v-1349h311zm42 1193c308-4 416-205 418-532 2-330-131-509-459-505H353v1037h162" id="bh"/><path d="M682 16c-209 0-323-80-324-285v-671H190v-142h170l58-282h120v282h432v142H538v652c2 114 60 155 182 155 106 0 209-16 297-34v137C921-4 806 16 682 16" id="bi"/><path d="M736-142h380V0H134v-142h422v-1200H267v-142h469v1342" id="bj"/><path d="M865-914c-3-187-2-380-2-570h180v1261c0 76 1 155 6 223H877c-8-49-9-116-10-174h-5C801-44 708 26 530 26c-135 0-234-46-297-139s-95-232-95-419c0-377 131-566 392-566 176 0 271 63 335 184zm-286-51c-222 0-255 197-255 427 0 229 31 425 253 425 237 0 286-195 286-441 0-238-52-411-284-411" id="bk"/><path d="M1048-32c-2 300-135 456-433 456-222-1-358-88-400-267l184-25c22 99 100 157 222 156 184-2 248-125 248-315 0-64 3-133-2-194C807-100 706-13 524-12c-306 0-381-228-381-537 0-318 85-550 400-550 164 0 271 83 325 202h3c1-60 3-134 12-185h171c-13 339-4 702-6 1050zM585-145c210-8 284-178 284-406 0-192-52-331-177-392-33-16-69-22-104-22-223 2-259 184-259 414 0 229 31 415 256 406" id="bl"/><g id="i"><use transform="matrix(0.007703993055555556,0,0,0.007703993055555556,0,0)" xlink:href="#bh"/><use transform="matrix(0.007703993055555556,0,0,0.007703993055555556,9.468207465277779,0)" xlink:href="#aF"/><use transform="matrix(0.007703993055555556,0,0,0.007703993055555556,18.936414930555557,0)" xlink:href="#bi"/><use transform="matrix(0.007703993055555556,0,0,0.007703993055555556,28.404622395833336,0)" xlink:href="#aF"/><use transform="matrix(0.007703993055555556,0,0,0.007703993055555556,37.872829861111114,0)" xlink:href="#bj"/><use transform="matrix(0.007703993055555556,0,0,0.007703993055555556,47.34103732638889,0)" xlink:href="#aJ"/><use transform="matrix(0.007703993055555556,0,0,0.007703993055555556,56.80924479166667,0)" xlink:href="#aF"/><use transform="matrix(0.007703993055555556,0,0,0.007703993055555556,66.27745225694446,0)" xlink:href="#bk"/><use transform="matrix(0.007703993055555556,0,0,0.007703993055555556,75.74565972222223,0)" xlink:href="#aI"/><use transform="matrix(0.007703993055555556,0,0,0.007703993055555556,85.2138671875,0)" xlink:href="#aK"/><use transform="matrix(0.007703993055555556,0,0,0.007703993055555556,94.68207465277777,0)" xlink:href="#bl"/></g><path d="M622-1349c296 4 497 117 497 404 0 282-193 424-485 431H353V0H162v-1349h460zm-15 684c195-3 320-88 320-277 0-184-129-255-328-254H353v531h254" id="bm"/><path d="M631 20c-350 0-501-215-501-562 0-355 162-560 502-560 250 0 399 118 446 323l-192 14c-23-124-109-196-262-196-242 0-305 171-305 415 1 245 61 427 304 427 151 0 248-77 267-215l190 12C1039-107 883 20 631 20" id="bn"/><path d="M914 0L548-499l-132 98V0H236v-1484h180v927l475-525h211L663-617 1125 0H914" id="bo"/><path d="M604-135c236 0 291-142 291-376v-838h190v859c5 340-142 510-480 510-326 0-463-164-463-492v-877h191v851c-3 222 46 363 271 363" id="bp"/><path d="M698-1104c312 3 392 244 392 558 0 315-82 566-392 566-169 0-277-65-331-184h-5c8 188 2 394 4 589H185V-858c0-76-1-156-6-224h175c6 52 9 120 10 178h4c58-122 150-202 330-200zm-49 991c225 0 255-203 255-433 0-225-32-419-253-419-236 0-285 192-285 441 0 237 53 411 283 411" id="bq"/><g id="j"><use transform="matrix(0.007703993055555556,0,0,0.007703993055555556,0,0)" xlink:href="#bm"/><use transform="matrix(0.007703993055555556,0,0,0.007703993055555556,9.468207465277779,0)" xlink:href="#aF"/><use transform="matrix(0.007703993055555556,0,0,0.007703993055555556,18.936414930555557,0)" xlink:href="#bn"/><use transform="matrix(0.007703993055555556,0,0,0.007703993055555556,28.404622395833336,0)" xlink:href="#bo"/><use transform="matrix(0.007703993055555556,0,0,0.007703993055555556,37.872829861111114,0)" xlink:href="#aQ"/><use transform="matrix(0.007703993055555556,0,0,0.007703993055555556,47.34103732638889,0)" xlink:href="#bp"/><use transform="matrix(0.007703993055555556,0,0,0.007703993055555556,56.80924479166667,0)" xlink:href="#aK"/><use transform="matrix(0.007703993055555556,0,0,0.007703993055555556,66.27745225694446,0)" xlink:href="#bq"/><use transform="matrix(0.007703993055555556,0,0,0.007703993055555556,75.74565972222223,0)" xlink:href="#aF"/><use transform="matrix(0.007703993055555556,0,0,0.007703993055555556,85.2138671875,0)" xlink:href="#bn"/><use transform="matrix(0.007703993055555556,0,0,0.007703993055555556,94.68207465277777,0)" xlink:href="#bo"/></g><path d="M839-1102c70 0 148 7 206 17v167c-112-18-268-36-363 15-129 69-208 203-208 395V0H294c-10-367 32-789-52-1082h171c21 75 41 161 48 250h5c67-152 152-270 373-270" id="br"/><path d="M617-1102c355 0 481 238 477 599H322c5 222 84 388 301 388 144 0 244-59 284-166l158 45C1002-72 854 20 623 20c-342 0-490-220-490-568 0-346 151-554 484-554zm291 461c-18-192-90-328-289-328-194 0-287 128-295 328h584" id="bs"/><g id="k"><use transform="matrix(0.007703993055555556,0,0,0.007703993055555556,0,0)" xlink:href="#bm"/><use transform="matrix(0.007703993055555556,0,0,0.007703993055555556,9.468207465277779,0)" xlink:href="#br"/><use transform="matrix(0.007703993055555556,0,0,0.007703993055555556,18.936414930555557,0)" xlink:href="#bs"/><use transform="matrix(0.007703993055555556,0,0,0.007703993055555556,28.404622395833336,0)" xlink:href="#bq"/><use transform="matrix(0.007703993055555556,0,0,0.007703993055555556,37.872829861111114,0)" xlink:href="#br"/><use transform="matrix(0.007703993055555556,0,0,0.007703993055555556,47.34103732638889,0)" xlink:href="#aJ"/><use transform="matrix(0.007703993055555556,0,0,0.007703993055555556,56.80924479166667,0)" xlink:href="#bn"/><use transform="matrix(0.007703993055555556,0,0,0.007703993055555556,66.27745225694446,0)" xlink:href="#bs"/><use transform="matrix(0.007703993055555556,0,0,0.007703993055555556,75.74565972222223,0)" xlink:href="#aG"/><use transform="matrix(0.007703993055555556,0,0,0.007703993055555556,85.2138671875,0)" xlink:href="#aG"/></g><g id="l"><use transform="matrix(0.007703993055555556,0,0,0.007703993055555556,0,0)" xlink:href="#aL"/><use transform="matrix(0.007703993055555556,0,0,0.007703993055555556,9.468207465277779,0)" xlink:href="#aF"/><use transform="matrix(0.007703993055555556,0,0,0.007703993055555556,18.936414930555557,0)" xlink:href="#bn"/><use transform="matrix(0.007703993055555556,0,0,0.007703993055555556,28.404622395833336,0)" xlink:href="#aH"/><use transform="matrix(0.007703993055555556,0,0,0.007703993055555556,37.872829861111114,0)" xlink:href="#bs"/></g><path d="M904-1102c199 0 220 177 220 381V0H956v-686c-3-114 0-215-60-264-70-33-125-4-158 71-26 56-39 140-39 252V0H531v-686c-3-114-1-215-61-264-78-41-136 24-157 84-24 69-39 159-39 259V0H105c-3-360 6-732-6-1082h149c6 50 3 123 8 175 36-100 83-195 216-195 135 0 166 79 196 196 42-105 93-196 236-196" id="bt"/><g id="m"><use transform="matrix(0.007703993055555556,0,0,0.007703993055555556,0,0)" xlink:href="#bt"/><use transform="matrix(0.007703993055555556,0,0,0.007703993055555556,9.468207465277779,0)" xlink:href="#aF"/><use transform="matrix(0.007703993055555556,0,0,0.007703993055555556,18.936414930555557,0)" xlink:href="#aK"/><use transform="matrix(0.007703993055555556,0,0,0.007703993055555556,28.404622395833336,0)" xlink:href="#aF"/><use transform="matrix(0.007703993055555556,0,0,0.007703993055555556,37.872829861111114,0)" xlink:href="#bl"/><use transform="matrix(0.007703993055555556,0,0,0.007703993055555556,47.34103732638889,0)" xlink:href="#bs"/><use transform="matrix(0.007703993055555556,0,0,0.007703993055555556,56.80924479166667,0)" xlink:href="#bt"/><use transform="matrix(0.007703993055555556,0,0,0.007703993055555556,66.27745225694446,0)" xlink:href="#bs"/><use transform="matrix(0.007703993055555556,0,0,0.007703993055555556,75.74565972222223,0)" xlink:href="#aK"/><use transform="matrix(0.007703993055555556,0,0,0.007703993055555556,85.2138671875,0)" xlink:href="#bi"/></g><path d="M143 212c82 12 185 12 233-31 50-45 83-117 110-192L38-1082h297c100 284 211 557 291 861 72-305 176-578 270-861h294L742 57c-80 192-156 368-417 368-60 0-131-4-182-13V212" id="bu"/><path d="M864 0L575-490l-121 84V0H173v-1484h281v850l386-448h302L762-660 1171 0H864" id="bv"/><path d="M762-1121V0H467v-1121H61v-228h1107v228H762" id="bw"/><path d="M424-1484c-2 206 5 424-8 618h4c67-145 160-234 348-236 251-3 335 167 336 416V0H824v-621c0-150-23-276-173-270-163 7-227 142-227 312V0H143v-1484h281" id="bx"/><path d="M794-190h353V0H118v-190h395v-702H223v-190h571v892zM513-1277v-207h281v207H513" id="by"/><path d="M934-1102c199 0 220 177 220 381V0H926c-2-260 10-533-4-785-4-72-14-138-83-138-34 0-61 27-81 81s-29 134-29 241V0H501c-2-260 9-533-5-785-4-72-13-138-82-138-46 0-65 47-80 93-21 67-30 155-30 248V0H75c-3-360 6-732-6-1082h209c6 50 3 123 8 175 36-100 83-195 216-195 135 0 166 79 196 196 42-105 93-196 236-196" id="bz"/><path d="M427-171c3 195 2 397 2 596H148V-846c1-83-4-168-8-236h272c10 49 14 118 15 176h4c59-114 151-197 316-197 291 0 385 259 385 560 0 243-65 433-220 521-50 28-109 42-176 42-162-2-253-78-309-191zm69-661c-91 113-92 463-1 586 46 62 145 101 225 54 96-57 118-191 119-351 0-123-18-215-53-276-46-82-128-115-220-74-25 12-48 33-70 61" id="bA"/><path d="M865-312c-44-312-23-686-28-1037h257V0H748L364-1010c44 304 24 668 28 1010H135v-1349h337" id="bB"/><g id="n"><use transform="matrix(0.0087890625,0,0,0.0087890625,0,0)" xlink:href="#bu"/><use transform="matrix(0.0087890625,0,0,0.0087890625,10.8017578125,0)" xlink:href="#bv"/><use transform="matrix(0.0087890625,0,0,0.0087890625,21.603515625,0)" xlink:href="#bf"/><use transform="matrix(0.0087890625,0,0,0.0087890625,32.4052734375,0)" xlink:href="#bw"/><use transform="matrix(0.0087890625,0,0,0.0087890625,43.20703125,0)" xlink:href="#aX"/><use transform="matrix(0.0087890625,0,0,0.0087890625,54.0087890625,0)" xlink:href="#aW"/><use transform="matrix(0.0087890625,0,0,0.0087890625,64.810546875,0)" xlink:href="#aY"/><use transform="matrix(0.0087890625,0,0,0.0087890625,75.6123046875,0)" xlink:href="#bx"/><use transform="matrix(0.0087890625,0,0,0.0087890625,86.4140625,0)" xlink:href="#bb"/><use transform="matrix(0.0087890625,0,0,0.0087890625,97.2158203125,0)" xlink:href="#ba"/><use transform="matrix(0.0087890625,0,0,0.0087890625,108.017578125,0)" xlink:href="#by"/><use transform="matrix(0.0087890625,0,0,0.0087890625,118.8193359375,0)" xlink:href="#bz"/><use transform="matrix(0.0087890625,0,0,0.0087890625,129.62109375,0)" xlink:href="#bA"/><use transform="matrix(0.0087890625,0,0,0.0087890625,140.4228515625,0)" xlink:href="#be"/><use transform="matrix(0.0087890625,0,0,0.0087890625,151.224609375,0)" xlink:href="#aZ"/><use transform="matrix(0.0087890625,0,0,0.0087890625,162.0263671875,0)" xlink:href="#bB"/><use transform="matrix(0.0087890625,0,0,0.0087890625,172.828125,0)" xlink:href="#bB"/></g><path d="M655-135c108 0 195-33 260-74v-336H622v-160h479v572C981-54 839 20 639 20c-388 0-526-306-526-701 0-406 129-689 529-689 261 0 392 137 461 331l-171 56c-47-131-122-231-288-231-281 0-330 245-330 533 0 179 28 314 84 407s142 139 257 139" id="bC"/><g id="p"><use transform="matrix(0.007703993055555556,0,0,0.007703993055555556,0,0)" xlink:href="#bC"/><use transform="matrix(0.007703993055555556,0,0,0.007703993055555556,9.468207465277779,0)" xlink:href="#bs"/><use transform="matrix(0.007703993055555556,0,0,0.007703993055555556,18.936414930555557,0)" xlink:href="#aK"/><use transform="matrix(0.007703993055555556,0,0,0.007703993055555556,28.404622395833336,0)" xlink:href="#bs"/><use transform="matrix(0.007703993055555556,0,0,0.007703993055555556,37.872829861111114,0)" xlink:href="#br"/><use transform="matrix(0.007703993055555556,0,0,0.007703993055555556,47.34103732638889,0)" xlink:href="#aF"/><use transform="matrix(0.007703993055555556,0,0,0.007703993055555556,56.80924479166667,0)" xlink:href="#bj"/></g><g id="q"><use transform="matrix(0.007703993055555556,0,0,0.007703993055555556,0,0)" xlink:href="#aA"/><use transform="matrix(0.007703993055555556,0,0,0.007703993055555556,9.468207465277779,0)" xlink:href="#aA"/></g><path d="M365-904c58-129 161-200 334-200 130 0 228 46 293 138s98 233 98 420c0 189-34 331-102 425S824 20 698 20c-170 0-275-64-336-184 0 55-3 116-9 164H179c5-68 6-147 6-223v-1261h180c-2 193 4 394-4 580h4zm283 791c221 0 256-197 256-427 0-229-34-425-254-425-236 0-285 195-285 441 0 237 53 411 283 411" id="bD"/><path d="M390 276c167 0 266-82 266-251v-965H249v-142h587V28c-4 270-165 397-431 397-107 0-208-16-288-43V242c80 18 173 34 273 34zm246-1568v-192h200v192H636" id="bE"/><g id="r"><use transform="matrix(0.007703993055555556,0,0,0.007703993055555556,0,0)" xlink:href="#aJ"/><use transform="matrix(0.007703993055555556,0,0,0.007703993055555556,9.468207465277779,0)" xlink:href="#bD"/><use transform="matrix(0.007703993055555556,0,0,0.007703993055555556,18.936414930555557,0)" xlink:href="#bE"/><use transform="matrix(0.007703993055555556,0,0,0.007703993055555556,28.404622395833336,0)" xlink:href="#bs"/><use transform="matrix(0.007703993055555556,0,0,0.007703993055555556,37.872829861111114,0)" xlink:href="#bn"/><use transform="matrix(0.007703993055555556,0,0,0.007703993055555556,47.34103732638889,0)" xlink:href="#bi"/></g><path d="M528 20c-247 0-343-132-343-381v-721h180v686c-4 177 45 284 224 277 194-8 279-136 279-336v-627h181c3 360-6 732 6 1082H885c-4-54-7-126-8-185h-3C809-64 714 20 528 20" id="bF"/><g id="s"><use transform="matrix(0.007703993055555556,0,0,0.007703993055555556,0,0)" xlink:href="#az"/><use transform="matrix(0.007703993055555556,0,0,0.007703993055555556,9.468207465277779,0)" xlink:href="#aJ"/><use transform="matrix(0.007703993055555556,0,0,0.007703993055555556,18.936414930555557,0)" xlink:href="#bk"/><use transform="matrix(0.007703993055555556,0,0,0.007703993055555556,28.404622395833336,0)" xlink:href="#bF"/><use transform="matrix(0.007703993055555556,0,0,0.007703993055555556,37.872829861111114,0)" xlink:href="#bj"/><use transform="matrix(0.007703993055555556,0,0,0.007703993055555556,47.34103732638889,0)" xlink:href="#bs"/></g><path d="M715 0H502L69-1082h202c94 253 197 500 285 758 19 57 36 126 52 183 96-335 234-626 350-941h201" id="bG"/><path d="M237 0v-1349h191v1193h672V0H237" id="bH"/><g id="t"><use transform="matrix(0.007703993055555556,0,0,0.007703993055555556,0,0)" xlink:href="#aC"/><use transform="matrix(0.007703993055555556,0,0,0.007703993055555556,9.468207465277779,0)" xlink:href="#aF"/><use transform="matrix(0.007703993055555556,0,0,0.007703993055555556,18.936414930555557,0)" xlink:href="#bG"/><use transform="matrix(0.007703993055555556,0,0,0.007703993055555556,28.404622395833336,0)" xlink:href="#bs"/><use transform="matrix(0.007703993055555556,0,0,0.007703993055555556,37.872829861111114,0)" xlink:href="#aQ"/><use transform="matrix(0.007703993055555556,0,0,0.007703993055555556,47.34103732638889,0)" xlink:href="#bH"/><use transform="matrix(0.007703993055555556,0,0,0.007703993055555556,56.80924479166667,0)" xlink:href="#aJ"/><use transform="matrix(0.007703993055555556,0,0,0.007703993055555556,66.27745225694446,0)" xlink:href="#aF"/><use transform="matrix(0.007703993055555556,0,0,0.007703993055555556,75.74565972222223,0)" xlink:href="#bk"/></g><g id="u"><use transform="matrix(0.007703993055555556,0,0,0.007703993055555556,0,0)" xlink:href="#aD"/><use transform="matrix(0.007703993055555556,0,0,0.007703993055555556,9.468207465277779,0)" xlink:href="#br"/><use transform="matrix(0.007703993055555556,0,0,0.007703993055555556,18.936414930555557,0)" xlink:href="#aF"/><use transform="matrix(0.007703993055555556,0,0,0.007703993055555556,28.404622395833336,0)" xlink:href="#aI"/><use transform="matrix(0.007703993055555556,0,0,0.007703993055555556,37.872829861111114,0)" xlink:href="#aK"/><use transform="matrix(0.007703993055555556,0,0,0.007703993055555556,47.34103732638889,0)" xlink:href="#aI"/><use transform="matrix(0.007703993055555556,0,0,0.007703993055555556,56.80924479166667,0)" xlink:href="#aK"/><use transform="matrix(0.007703993055555556,0,0,0.007703993055555556,66.27745225694446,0)" xlink:href="#bl"/></g><g id="v"><use transform="matrix(0.007703993055555556,0,0,0.007703993055555556,0,0)" xlink:href="#bh"/><use transform="matrix(0.007703993055555556,0,0,0.007703993055555556,9.468207465277779,0)" xlink:href="#bs"/><use transform="matrix(0.007703993055555556,0,0,0.007703993055555556,18.936414930555557,0)" xlink:href="#bG"/><use transform="matrix(0.007703993055555556,0,0,0.007703993055555556,28.404622395833336,0)" xlink:href="#aI"/><use transform="matrix(0.007703993055555556,0,0,0.007703993055555556,37.872829861111114,0)" xlink:href="#bn"/><use transform="matrix(0.007703993055555556,0,0,0.007703993055555556,47.34103732638889,0)" xlink:href="#bs"/></g><g id="w"><use transform="matrix(0.007703993055555556,0,0,0.007703993055555556,0,0)" xlink:href="#aL"/><use transform="matrix(0.007703993055555556,0,0,0.007703993055555556,9.468207465277779,0)" xlink:href="#aJ"/><use transform="matrix(0.007703993055555556,0,0,0.007703993055555556,18.936414930555557,0)" xlink:href="#aK"/><use transform="matrix(0.007703993055555556,0,0,0.007703993055555556,28.404622395833336,0)" xlink:href="#bi"/><use transform="matrix(0.007703993055555556,0,0,0.007703993055555556,37.872829861111114,0)" xlink:href="#br"/><use transform="matrix(0.007703993055555556,0,0,0.007703993055555556,47.34103732638889,0)" xlink:href="#aJ"/><use transform="matrix(0.007703993055555556,0,0,0.007703993055555556,56.80924479166667,0)" xlink:href="#bj"/></g><g id="x"><use transform="matrix(0.0087890625,0,0,0.0087890625,0,0)" xlink:href="#bu"/><use transform="matrix(0.0087890625,0,0,0.0087890625,10.8017578125,0)" xlink:href="#bv"/><use transform="matrix(0.0087890625,0,0,0.0087890625,21.603515625,0)" xlink:href="#bf"/><use transform="matrix(0.0087890625,0,0,0.0087890625,32.4052734375,0)" xlink:href="#bw"/><use transform="matrix(0.0087890625,0,0,0.0087890625,43.20703125,0)" xlink:href="#aX"/><use transform="matrix(0.0087890625,0,0,0.0087890625,54.0087890625,0)" xlink:href="#aW"/><use transform="matrix(0.0087890625,0,0,0.0087890625,64.810546875,0)" xlink:href="#aY"/><use transform="matrix(0.0087890625,0,0,0.0087890625,75.6123046875,0)" xlink:href="#bx"/><use transform="matrix(0.0087890625,0,0,0.0087890625,86.4140625,0)" xlink:href="#bb"/><use transform="matrix(0.0087890625,0,0,0.0087890625,97.2158203125,0)" xlink:href="#ba"/><use transform="matrix(0.0087890625,0,0,0.0087890625,108.017578125,0)" xlink:href="#by"/><use transform="matrix(0.0087890625,0,0,0.0087890625,118.8193359375,0)" xlink:href="#bz"/><use transform="matrix(0.0087890625,0,0,0.0087890625,129.62109375,0)" xlink:href="#bA"/><use transform="matrix(0.0087890625,0,0,0.0087890625,140.4228515625,0)" xlink:href="#be"/><use transform="matrix(0.0087890625,0,0,0.0087890625,151.224609375,0)" xlink:href="#aZ"/><use transform="matrix(0.0087890625,0,0,0.0087890625,162.0263671875,0)" xlink:href="#bB"/><use transform="matrix(0.0087890625,0,0,0.0087890625,172.828125,0)" xlink:href="#bB"/></g><path d="M89 20l821-1504h228L321 20H89" id="bI"/><path d="M844-1321c-130 0-195 53-191 182v57h443v190H653V0H373v-892H117v-190h256v-83c5-247 162-348 422-349 120-1 232 13 327 28v184c-84-10-183-19-278-19" id="bJ"/><path d="M1028 0H784c-56-191-119-378-170-573C562-377 495-191 437 0H194L11-1082h228c32 239 67 472 95 714 4 40 7 80 7 119 53-195 119-378 177-568h193c56 190 120 371 169 568-1-79 11-158 21-226l91-607h226" id="bK"/><g id="y"><use transform="matrix(0.0087890625,0,0,0.0087890625,0,0)" xlink:href="#bb"/><use transform="matrix(0.0087890625,0,0,0.0087890625,10.8017578125,0)" xlink:href="#bB"/><use transform="matrix(0.0087890625,0,0,0.0087890625,21.603515625,0)" xlink:href="#bB"/><use transform="matrix(0.0087890625,0,0,0.0087890625,32.4052734375,0)" xlink:href="#ba"/><use transform="matrix(0.0087890625,0,0,0.0087890625,43.20703125,0)" xlink:href="#aU"/><use transform="matrix(0.0087890625,0,0,0.0087890625,54.0087890625,0)" xlink:href="#aW"/><use transform="matrix(0.0087890625,0,0,0.0087890625,64.810546875,0)" xlink:href="#bf"/><use transform="matrix(0.0087890625,0,0,0.0087890625,75.6123046875,0)" xlink:href="#aY"/><use transform="matrix(0.0087890625,0,0,0.0087890625,86.4140625,0)" xlink:href="#aU"/><use transform="matrix(0.0087890625,0,0,0.0087890625,97.2158203125,0)" xlink:href="#bI"/><use transform="matrix(0.0087890625,0,0,0.0087890625,108.017578125,0)" xlink:href="#bb"/><use transform="matrix(0.0087890625,0,0,0.0087890625,118.8193359375,0)" xlink:href="#bJ"/><use transform="matrix(0.0087890625,0,0,0.0087890625,129.62109375,0)" xlink:href="#aX"/><use transform="matrix(0.0087890625,0,0,0.0087890625,140.4228515625,0)" xlink:href="#aW"/><use transform="matrix(0.0087890625,0,0,0.0087890625,151.224609375,0)" xlink:href="#bK"/><use transform="matrix(0.0087890625,0,0,0.0087890625,162.0263671875,0)" xlink:href="#aT"/><use transform="matrix(0.0087890625,0,0,0.0087890625,172.828125,0)" xlink:href="#aW"/><use transform="matrix(0.0087890625,0,0,0.0087890625,183.6298828125,0)" xlink:href="#aS"/></g><path d="M147 0v-137l681-806H187v-139h844v137L349-139h719V0H147" id="bL"/><g id="z"><use transform="matrix(0.007703993055555556,0,0,0.007703993055555556,0,0)" xlink:href="#bn"/><use transform="matrix(0.007703993055555556,0,0,0.007703993055555556,9.468207465277779,0)" xlink:href="#bF"/><use transform="matrix(0.007703993055555556,0,0,0.007703993055555556,18.936414930555557,0)" xlink:href="#aG"/><use transform="matrix(0.007703993055555556,0,0,0.007703993055555556,28.404622395833336,0)" xlink:href="#bi"/><use transform="matrix(0.007703993055555556,0,0,0.007703993055555556,37.872829861111114,0)" xlink:href="#aJ"/><use transform="matrix(0.007703993055555556,0,0,0.007703993055555556,47.34103732638889,0)" xlink:href="#bt"/><use transform="matrix(0.007703993055555556,0,0,0.007703993055555556,56.80924479166667,0)" xlink:href="#aI"/><use transform="matrix(0.007703993055555556,0,0,0.007703993055555556,66.27745225694446,0)" xlink:href="#bL"/><use transform="matrix(0.007703993055555556,0,0,0.007703993055555556,75.74565972222223,0)" xlink:href="#aF"/><use transform="matrix(0.007703993055555556,0,0,0.007703993055555556,85.2138671875,0)" xlink:href="#bD"/><use transform="matrix(0.007703993055555556,0,0,0.007703993055555556,94.68207465277777,0)" xlink:href="#bj"/><use transform="matrix(0.007703993055555556,0,0,0.007703993055555556,104.15028211805554,0)" xlink:href="#bs"/></g><g id="A"><use transform="matrix(0.007703993055555556,0,0,0.007703993055555556,0,0)" xlink:href="#aG"/><use transform="matrix(0.007703993055555556,0,0,0.007703993055555556,9.468207465277779,0)" xlink:href="#bi"/><use transform="matrix(0.007703993055555556,0,0,0.007703993055555556,18.936414930555557,0)" xlink:href="#br"/><use transform="matrix(0.007703993055555556,0,0,0.007703993055555556,28.404622395833336,0)" xlink:href="#bF"/><use transform="matrix(0.007703993055555556,0,0,0.007703993055555556,37.872829861111114,0)" xlink:href="#bn"/><use transform="matrix(0.007703993055555556,0,0,0.007703993055555556,47.34103732638889,0)" xlink:href="#bi"/><use transform="matrix(0.007703993055555556,0,0,0.007703993055555556,56.80924479166667,0)" xlink:href="#bF"/><use transform="matrix(0.007703993055555556,0,0,0.007703993055555556,66.27745225694446,0)" xlink:href="#br"/><use transform="matrix(0.007703993055555556,0,0,0.007703993055555556,75.74565972222223,0)" xlink:href="#bs"/></g><g id="B"><use transform="matrix(0.0087890625,0,0,0.0087890625,0,0)" xlink:href="#aD"/><use transform="matrix(0.0087890625,0,0,0.0087890625,10.8017578125,0)" xlink:href="#br"/><use transform="matrix(0.0087890625,0,0,0.0087890625,21.603515625,0)" xlink:href="#aF"/><use transform="matrix(0.0087890625,0,0,0.0087890625,32.4052734375,0)" xlink:href="#aI"/><use transform="matrix(0.0087890625,0,0,0.0087890625,43.20703125,0)" xlink:href="#aK"/></g><g id="C"><use transform="matrix(0.0087890625,0,0,0.0087890625,0,0)" xlink:href="#bn"/><use transform="matrix(0.0087890625,0,0,0.0087890625,10.8017578125,0)" xlink:href="#bF"/><use transform="matrix(0.0087890625,0,0,0.0087890625,21.603515625,0)" xlink:href="#aG"/><use transform="matrix(0.0087890625,0,0,0.0087890625,32.4052734375,0)" xlink:href="#bi"/><use transform="matrix(0.0087890625,0,0,0.0087890625,43.20703125,0)" xlink:href="#aJ"/><use transform="matrix(0.0087890625,0,0,0.0087890625,54.0087890625,0)" xlink:href="#bt"/><use transform="matrix(0.0087890625,0,0,0.0087890625,64.810546875,0)" xlink:href="#aI"/><use transform="matrix(0.0087890625,0,0,0.0087890625,75.6123046875,0)" xlink:href="#bL"/><use transform="matrix(0.0087890625,0,0,0.0087890625,86.4140625,0)" xlink:href="#aF"/><use transform="matrix(0.0087890625,0,0,0.0087890625,97.2158203125,0)" xlink:href="#bD"/><use transform="matrix(0.0087890625,0,0,0.0087890625,108.017578125,0)" xlink:href="#bj"/><use transform="matrix(0.0087890625,0,0,0.0087890625,118.8193359375,0)" xlink:href="#bs"/></g><path d="M102-681c0-398 126-689 513-689 165 0 291 58 379 174s132 287 132 515c-1 318-88 554-298 657-123 61-317 58-438-3-206-104-288-341-288-654zm749 406c94-160 97-656-5-807-57-85-130-132-231-132-104 0-178 47-234 132-101 153-99 655 1 809 57 89 130 138 232 138 109 0 184-49 237-140" id="bM"/><g id="D"><use transform="matrix(0.0087890625,0,0,0.0087890625,0,0)" xlink:href="#bM"/><use transform="matrix(0.0087890625,0,0,0.0087890625,10.8017578125,0)" xlink:href="#bq"/><use transform="matrix(0.0087890625,0,0,0.0087890625,21.603515625,0)" xlink:href="#bi"/><use transform="matrix(0.0087890625,0,0,0.0087890625,32.4052734375,0)" xlink:href="#aI"/><use transform="matrix(0.0087890625,0,0,0.0087890625,43.20703125,0)" xlink:href="#bt"/><use transform="matrix(0.0087890625,0,0,0.0087890625,54.0087890625,0)" xlink:href="#aI"/><use transform="matrix(0.0087890625,0,0,0.0087890625,64.810546875,0)" xlink:href="#bL"/><use transform="matrix(0.0087890625,0,0,0.0087890625,75.6123046875,0)" xlink:href="#bs"/><use transform="matrix(0.0087890625,0,0,0.0087890625,86.4140625,0)" xlink:href="#br"/></g><g id="E"><use transform="matrix(0.0087890625,0,0,0.0087890625,0,0)" xlink:href="#bu"/><use transform="matrix(0.0087890625,0,0,0.0087890625,10.8017578125,0)" xlink:href="#bv"/><use transform="matrix(0.0087890625,0,0,0.0087890625,21.603515625,0)" xlink:href="#bf"/><use transform="matrix(0.0087890625,0,0,0.0087890625,32.4052734375,0)" xlink:href="#bw"/><use transform="matrix(0.0087890625,0,0,0.0087890625,43.20703125,0)" xlink:href="#aX"/><use transform="matrix(0.0087890625,0,0,0.0087890625,54.0087890625,0)" xlink:href="#aW"/><use transform="matrix(0.0087890625,0,0,0.0087890625,64.810546875,0)" xlink:href="#aY"/><use transform="matrix(0.0087890625,0,0,0.0087890625,75.6123046875,0)" xlink:href="#bx"/><use transform="matrix(0.0087890625,0,0,0.0087890625,86.4140625,0)" xlink:href="#bb"/><use transform="matrix(0.0087890625,0,0,0.0087890625,97.2158203125,0)" xlink:href="#aY"/><use transform="matrix(0.0087890625,0,0,0.0087890625,108.017578125,0)" xlink:href="#bB"/><use transform="matrix(0.0087890625,0,0,0.0087890625,118.8193359375,0)" xlink:href="#aX"/><use transform="matrix(0.0087890625,0,0,0.0087890625,129.62109375,0)" xlink:href="#aW"/><use transform="matrix(0.0087890625,0,0,0.0087890625,140.4228515625,0)" xlink:href="#bz"/></g><g id="F"><use transform="matrix(0.007703993055555556,0,0,0.007703993055555556,0,0)" xlink:href="#bn"/><use transform="matrix(0.007703993055555556,0,0,0.007703993055555556,9.468207465277779,0)" xlink:href="#bF"/><use transform="matrix(0.007703993055555556,0,0,0.007703993055555556,18.936414930555557,0)" xlink:href="#aG"/><use transform="matrix(0.007703993055555556,0,0,0.007703993055555556,28.404622395833336,0)" xlink:href="#bi"/><use transform="matrix(0.007703993055555556,0,0,0.007703993055555556,37.872829861111114,0)" xlink:href="#aJ"/><use transform="matrix(0.007703993055555556,0,0,0.007703993055555556,47.34103732638889,0)" xlink:href="#bt"/><use transform="matrix(0.007703993055555556,0,0,0.007703993055555556,56.80924479166667,0)" xlink:href="#aI"/><use transform="matrix(0.007703993055555556,0,0,0.007703993055555556,66.27745225694446,0)" xlink:href="#bL"/><use transform="matrix(0.007703993055555556,0,0,0.007703993055555556,75.74565972222223,0)" xlink:href="#aF"/><use transform="matrix(0.007703993055555556,0,0,0.007703993055555556,85.2138671875,0)" xlink:href="#bD"/><use transform="matrix(0.007703993055555556,0,0,0.007703993055555556,94.68207465277777,0)" xlink:href="#bj"/><use transform="matrix(0.007703993055555556,0,0,0.007703993055555556,104.15028211805554,0)" xlink:href="#bs"/></g><g id="G"><use transform="matrix(0.007703993055555556,0,0,0.007703993055555556,0,0)" xlink:href="#aA"/><use transform="matrix(0.007703993055555556,0,0,0.007703993055555556,9.468207465277779,0)" xlink:href="#aJ"/><use transform="matrix(0.007703993055555556,0,0,0.007703993055555556,18.936414930555557,0)" xlink:href="#br"/><use transform="matrix(0.007703993055555556,0,0,0.007703993055555556,28.404622395833336,0)" xlink:href="#bt"/></g><path d="M774 0H438L31-1082h297c94 290 200 568 280 872 83-304 194-581 291-872h294" id="bN"/><g id="H"><use transform="matrix(0.0087890625,0,0,0.0087890625,0,0)" xlink:href="#bu"/><use transform="matrix(0.0087890625,0,0,0.0087890625,10.8017578125,0)" xlink:href="#bv"/><use transform="matrix(0.0087890625,0,0,0.0087890625,21.603515625,0)" xlink:href="#bf"/><use transform="matrix(0.0087890625,0,0,0.0087890625,32.4052734375,0)" xlink:href="#bw"/><use transform="matrix(0.0087890625,0,0,0.0087890625,43.20703125,0)" xlink:href="#aX"/><use transform="matrix(0.0087890625,0,0,0.0087890625,54.0087890625,0)" xlink:href="#aW"/><use transform="matrix(0.0087890625,0,0,0.0087890625,64.810546875,0)" xlink:href="#aY"/><use transform="matrix(0.0087890625,0,0,0.0087890625,75.6123046875,0)" xlink:href="#bx"/><use transform="matrix(0.0087890625,0,0,0.0087890625,86.4140625,0)" xlink:href="#bb"/><use transform="matrix(0.0087890625,0,0,0.0087890625,97.2158203125,0)" xlink:href="#aZ"/><use transform="matrix(0.0087890625,0,0,0.0087890625,108.017578125,0)" xlink:href="#bN"/><use transform="matrix(0.0087890625,0,0,0.0087890625,118.8193359375,0)" xlink:href="#aT"/><use transform="matrix(0.0087890625,0,0,0.0087890625,129.62109375,0)" xlink:href="#be"/><use transform="matrix(0.0087890625,0,0,0.0087890625,140.4228515625,0)" xlink:href="#bB"/><use transform="matrix(0.0087890625,0,0,0.0087890625,151.224609375,0)" xlink:href="#bB"/></g><g id="I"><use transform="matrix(0.007703993055555556,0,0,0.007703993055555556,0,0)" xlink:href="#aC"/><use transform="matrix(0.007703993055555556,0,0,0.007703993055555556,9.468207465277779,0)" xlink:href="#bi"/><use transform="matrix(0.007703993055555556,0,0,0.007703993055555556,18.936414930555557,0)" xlink:href="#aF"/><use transform="matrix(0.007703993055555556,0,0,0.007703993055555556,28.404622395833336,0)" xlink:href="#bi"/><use transform="matrix(0.007703993055555556,0,0,0.007703993055555556,37.872829861111114,0)" xlink:href="#aI"/><use transform="matrix(0.007703993055555556,0,0,0.007703993055555556,47.34103732638889,0)" xlink:href="#aG"/><use transform="matrix(0.007703993055555556,0,0,0.007703993055555556,56.80924479166667,0)" xlink:href="#bi"/><use transform="matrix(0.007703993055555556,0,0,0.007703993055555556,66.27745225694446,0)" xlink:href="#aI"/><use transform="matrix(0.007703993055555556,0,0,0.007703993055555556,75.74565972222223,0)" xlink:href="#bn"/></g><path d="M168 279c222 39 310-114 368-290L66-1082h192c120 299 249 590 362 896 115-301 235-597 351-896h190L705 0c-65 164-130 320-275 396-67 36-177 35-262 18V279" id="bO"/><g id="J"><use transform="matrix(0.007703993055555556,0,0,0.007703993055555556,0,0)" xlink:href="#aF"/><use transform="matrix(0.007703993055555556,0,0,0.007703993055555556,9.468207465277779,0)" xlink:href="#aK"/><use transform="matrix(0.007703993055555556,0,0,0.007703993055555556,18.936414930555557,0)" xlink:href="#aF"/><use transform="matrix(0.007703993055555556,0,0,0.007703993055555556,28.404622395833336,0)" xlink:href="#bj"/><use transform="matrix(0.007703993055555556,0,0,0.007703993055555556,37.872829861111114,0)" xlink:href="#bO"/><use transform="matrix(0.007703993055555556,0,0,0.007703993055555556,47.34103732638889,0)" xlink:href="#aG"/><use transform="matrix(0.007703993055555556,0,0,0.007703993055555556,56.80924479166667,0)" xlink:href="#aI"/><use transform="matrix(0.007703993055555556,0,0,0.007703993055555556,66.27745225694446,0)" xlink:href="#aG"/></g><g id="K"><use transform="matrix(0.007703993055555556,0,0,0.007703993055555556,0,0)" xlink:href="#bh"/><use transform="matrix(0.007703993055555556,0,0,0.007703993055555556,9.468207465277779,0)" xlink:href="#aI"/><use transform="matrix(0.007703993055555556,0,0,0.007703993055555556,18.936414930555557,0)" xlink:href="#aG"/><use transform="matrix(0.007703993055555556,0,0,0.007703993055555556,28.404622395833336,0)" xlink:href="#bq"/><use transform="matrix(0.007703993055555556,0,0,0.007703993055555556,37.872829861111114,0)" xlink:href="#bj"/><use transform="matrix(0.007703993055555556,0,0,0.007703993055555556,47.34103732638889,0)" xlink:href="#aF"/><use transform="matrix(0.007703993055555556,0,0,0.007703993055555556,56.80924479166667,0)" xlink:href="#bO"/></g><g id="L"><use transform="matrix(0.007703993055555556,0,0,0.007703993055555556,0,0)" xlink:href="#br"/><use transform="matrix(0.007703993055555556,0,0,0.007703993055555556,9.468207465277779,0)" xlink:href="#bs"/><use transform="matrix(0.007703993055555556,0,0,0.007703993055555556,18.936414930555557,0)" xlink:href="#aG"/><use transform="matrix(0.007703993055555556,0,0,0.007703993055555556,28.404622395833336,0)" xlink:href="#bF"/><use transform="matrix(0.007703993055555556,0,0,0.007703993055555556,37.872829861111114,0)" xlink:href="#bj"/><use transform="matrix(0.007703993055555556,0,0,0.007703993055555556,47.34103732638889,0)" xlink:href="#bi"/><use transform="matrix(0.007703993055555556,0,0,0.007703993055555556,56.80924479166667,0)" xlink:href="#aG"/></g><path d="M768-1103c247 0 336 167 336 416V0H824v-619c-3-164-24-273-171-273-164 0-229 142-229 312V0H143c-4-359 9-736-8-1082h268c7 63 12 146 13 215h4c67-145 160-236 348-236" id="bP"/><g id="M"><use transform="matrix(0.0087890625,0,0,0.0087890625,0,0)" xlink:href="#aS"/><use transform="matrix(0.0087890625,0,0,0.0087890625,10.8017578125,0)" xlink:href="#aT"/><use transform="matrix(0.0087890625,0,0,0.0087890625,21.603515625,0)" xlink:href="#aU"/><use transform="matrix(0.0087890625,0,0,0.0087890625,32.4052734375,0)" xlink:href="#aT"/><use transform="matrix(0.0087890625,0,0,0.0087890625,43.20703125,0)" xlink:href="#aV"/><use transform="matrix(0.0087890625,0,0,0.0087890625,54.0087890625,0)" xlink:href="#aW"/><use transform="matrix(0.0087890625,0,0,0.0087890625,64.810546875,0)" xlink:href="#aX"/><use transform="matrix(0.0087890625,0,0,0.0087890625,75.6123046875,0)" xlink:href="#aY"/><use transform="matrix(0.0087890625,0,0,0.0087890625,86.4140625,0)" xlink:href="#aZ"/><use transform="matrix(0.0087890625,0,0,0.0087890625,97.2158203125,0)" xlink:href="#ba"/><use transform="matrix(0.0087890625,0,0,0.0087890625,108.017578125,0)" xlink:href="#ba"/><use transform="matrix(0.0087890625,0,0,0.0087890625,118.8193359375,0)" xlink:href="#bb"/><use transform="matrix(0.0087890625,0,0,0.0087890625,129.62109375,0)" xlink:href="#aY"/><use transform="matrix(0.0087890625,0,0,0.0087890625,140.4228515625,0)" xlink:href="#aX"/><use transform="matrix(0.0087890625,0,0,0.0087890625,151.224609375,0)" xlink:href="#bP"/><use transform="matrix(0.0087890625,0,0,0.0087890625,162.0263671875,0)" xlink:href="#aU"/><use transform="matrix(0.0087890625,0,0,0.0087890625,172.828125,0)" xlink:href="#aT"/><use transform="matrix(0.0087890625,0,0,0.0087890625,183.6298828125,0)" xlink:href="#bz"/><use transform="matrix(0.0087890625,0,0,0.0087890625,194.431640625,0)" xlink:href="#by"/><use transform="matrix(0.0087890625,0,0,0.0087890625,205.2333984375,0)" xlink:href="#bP"/><use transform="matrix(0.0087890625,0,0,0.0087890625,216.03515625,0)" xlink:href="#aT"/><use transform="matrix(0.0087890625,0,0,0.0087890625,226.8369140625,0)" xlink:href="#aU"/><use transform="matrix(0.0087890625,0,0,0.0087890625,237.638671875,0)" xlink:href="#aZ"/></g><g id="O"><use transform="matrix(0.007703993055555556,0,0,0.007703993055555556,0,0)" xlink:href="#bC"/><use transform="matrix(0.007703993055555556,0,0,0.007703993055555556,9.468207465277779,0)" xlink:href="#bs"/><use transform="matrix(0.007703993055555556,0,0,0.007703993055555556,18.936414930555557,0)" xlink:href="#aK"/><use transform="matrix(0.007703993055555556,0,0,0.007703993055555556,28.404622395833336,0)" xlink:href="#bs"/><use transform="matrix(0.007703993055555556,0,0,0.007703993055555556,37.872829861111114,0)" xlink:href="#br"/><use transform="matrix(0.007703993055555556,0,0,0.007703993055555556,47.34103732638889,0)" xlink:href="#aF"/><use transform="matrix(0.007703993055555556,0,0,0.007703993055555556,56.80924479166667,0)" xlink:href="#bi"/><use transform="matrix(0.007703993055555556,0,0,0.007703993055555556,66.27745225694446,0)" xlink:href="#bs"/></g><g id="P"><use transform="matrix(0.007703993055555556,0,0,0.007703993055555556,0,0)" xlink:href="#bn"/><use transform="matrix(0.007703993055555556,0,0,0.007703993055555556,9.468207465277779,0)" xlink:href="#aJ"/><use transform="matrix(0.007703993055555556,0,0,0.007703993055555556,18.936414930555557,0)" xlink:href="#aK"/><use transform="matrix(0.007703993055555556,0,0,0.007703993055555556,28.404622395833336,0)" xlink:href="#bi"/><use transform="matrix(0.007703993055555556,0,0,0.007703993055555556,37.872829861111114,0)" xlink:href="#aF"/><use transform="matrix(0.007703993055555556,0,0,0.007703993055555556,47.34103732638889,0)" xlink:href="#bt"/><use transform="matrix(0.007703993055555556,0,0,0.007703993055555556,56.80924479166667,0)" xlink:href="#aI"/><use transform="matrix(0.007703993055555556,0,0,0.007703993055555556,66.27745225694446,0)" xlink:href="#aK"/><use transform="matrix(0.007703993055555556,0,0,0.007703993055555556,75.74565972222223,0)" xlink:href="#aF"/><use transform="matrix(0.007703993055555556,0,0,0.007703993055555556,85.2138671875,0)" xlink:href="#bi"/><use transform="matrix(0.007703993055555556,0,0,0.007703993055555556,94.68207465277777,0)" xlink:href="#bs"/><use transform="matrix(0.007703993055555556,0,0,0.007703993055555556,104.15028211805554,0)" xlink:href="#bk"/></g><g id="Q"><use transform="matrix(0.007703993055555556,0,0,0.007703993055555556,0,0)" xlink:href="#bk"/><use transform="matrix(0.007703993055555556,0,0,0.007703993055555556,9.468207465277779,0)" xlink:href="#aF"/><use transform="matrix(0.007703993055555556,0,0,0.007703993055555556,18.936414930555557,0)" xlink:href="#bi"/><use transform="matrix(0.007703993055555556,0,0,0.007703993055555556,28.404622395833336,0)" xlink:href="#aF"/></g><g id="R"><use transform="matrix(0.0087890625,0,0,0.0087890625,0,0)" xlink:href="#aL"/><use transform="matrix(0.0087890625,0,0,0.0087890625,10.8017578125,0)" xlink:href="#aJ"/><use transform="matrix(0.0087890625,0,0,0.0087890625,21.603515625,0)" xlink:href="#aK"/><use transform="matrix(0.0087890625,0,0,0.0087890625,32.4052734375,0)" xlink:href="#bi"/><use transform="matrix(0.0087890625,0,0,0.0087890625,43.20703125,0)" xlink:href="#aF"/><use transform="matrix(0.0087890625,0,0,0.0087890625,54.0087890625,0)" xlink:href="#bt"/><use transform="matrix(0.0087890625,0,0,0.0087890625,64.810546875,0)" xlink:href="#aI"/><use transform="matrix(0.0087890625,0,0,0.0087890625,75.6123046875,0)" xlink:href="#aK"/><use transform="matrix(0.0087890625,0,0,0.0087890625,86.4140625,0)" xlink:href="#aF"/><use transform="matrix(0.0087890625,0,0,0.0087890625,97.2158203125,0)" xlink:href="#bi"/><use transform="matrix(0.0087890625,0,0,0.0087890625,108.017578125,0)" xlink:href="#bs"/><use transform="matrix(0.0087890625,0,0,0.0087890625,118.8193359375,0)" xlink:href="#bk"/></g><g id="S"><use transform="matrix(0.0087890625,0,0,0.0087890625,0,0)" xlink:href="#bh"/><use transform="matrix(0.0087890625,0,0,0.0087890625,10.8017578125,0)" xlink:href="#aF"/><use transform="matrix(0.0087890625,0,0,0.0087890625,21.603515625,0)" xlink:href="#bi"/><use transform="matrix(0.0087890625,0,0,0.0087890625,32.4052734375,0)" xlink:href="#aF"/></g><g id="U"><use transform="matrix(0.007703993055555556,0,0,0.007703993055555556,0,0)" xlink:href="#aD"/><use transform="matrix(0.007703993055555556,0,0,0.007703993055555556,9.468207465277779,0)" xlink:href="#bs"/><use transform="matrix(0.007703993055555556,0,0,0.007703993055555556,18.936414930555557,0)" xlink:href="#aG"/><use transform="matrix(0.007703993055555556,0,0,0.007703993055555556,28.404622395833336,0)" xlink:href="#bi"/></g><path d="M839-1335c-182-6-269 67-259 253h491v142H580V0H400v-940H138v-142h262c-15-293 132-408 418-402 94 2 200 7 281 21v145c-75-10-177-14-260-17" id="bQ"/><g id="V"><use transform="matrix(0.007703993055555556,0,0,0.007703993055555556,0,0)" xlink:href="#bn"/><use transform="matrix(0.007703993055555556,0,0,0.007703993055555556,9.468207465277779,0)" xlink:href="#bj"/><use transform="matrix(0.007703993055555556,0,0,0.007703993055555556,18.936414930555557,0)" xlink:href="#aF"/><use transform="matrix(0.007703993055555556,0,0,0.007703993055555556,28.404622395833336,0)" xlink:href="#aG"/><use transform="matrix(0.007703993055555556,0,0,0.007703993055555556,37.872829861111114,0)" xlink:href="#aG"/><use transform="matrix(0.007703993055555556,0,0,0.007703993055555556,47.34103732638889,0)" xlink:href="#aI"/><use transform="matrix(0.007703993055555556,0,0,0.007703993055555556,56.80924479166667,0)" xlink:href="#bQ"/><use transform="matrix(0.007703993055555556,0,0,0.007703993055555556,66.27745225694446,0)" xlink:href="#aI"/><use transform="matrix(0.007703993055555556,0,0,0.007703993055555556,75.74565972222223,0)" xlink:href="#bs"/><use transform="matrix(0.007703993055555556,0,0,0.007703993055555556,85.2138671875,0)" xlink:href="#br"/><use transform="matrix(0.007703993055555556,0,0,0.007703993055555556,94.68207465277777,0)" xlink:href="#aG"/></g><path d="M1100-543c2 361-147 563-501 563-342 0-470-199-470-548v-821h295v818c3 172 13 322 183 320 173-2 198-150 198-330v-808h295v806" id="bR"/><g id="W"><use transform="matrix(0.0087890625,0,0,0.0087890625,0,0)" xlink:href="#bu"/><use transform="matrix(0.0087890625,0,0,0.0087890625,10.8017578125,0)" xlink:href="#bv"/><use transform="matrix(0.0087890625,0,0,0.0087890625,21.603515625,0)" xlink:href="#bf"/><use transform="matrix(0.0087890625,0,0,0.0087890625,32.4052734375,0)" xlink:href="#bR"/><use transform="matrix(0.0087890625,0,0,0.0087890625,43.20703125,0)" xlink:href="#aU"/><use transform="matrix(0.0087890625,0,0,0.0087890625,54.0087890625,0)" xlink:href="#by"/><use transform="matrix(0.0087890625,0,0,0.0087890625,64.810546875,0)" xlink:href="#be"/><use transform="matrix(0.0087890625,0,0,0.0087890625,75.6123046875,0)" xlink:href="#ba"/></g><path d="M800 425c-1-198 1-404 0-596C746-55 645 20 483 20 183 20 97-237 97-543c0-242 74-429 227-518 49-28 105-42 168-42 163 0 248 85 306 197h4c1-59 6-126 15-176h272c-4 67-9 153-8 236V425H800zm-66-671c93-114 91-467-2-586-35-45-76-79-141-79-64 0-113 31-149 92-69 115-66 440 4 561 39 68 130 111 220 70 25-11 46-31 68-58" id="bS"/><g id="X"><use transform="matrix(0.0087890625,0,0,0.0087890625,0,0)" xlink:href="#bb"/><use transform="matrix(0.0087890625,0,0,0.0087890625,10.8017578125,0)" xlink:href="#aW"/><use transform="matrix(0.0087890625,0,0,0.0087890625,21.603515625,0)" xlink:href="#bf"/><use transform="matrix(0.0087890625,0,0,0.0087890625,32.4052734375,0)" xlink:href="#bP"/><use transform="matrix(0.0087890625,0,0,0.0087890625,43.20703125,0)" xlink:href="#aV"/><use transform="matrix(0.0087890625,0,0,0.0087890625,54.0087890625,0)" xlink:href="#aT"/><use transform="matrix(0.0087890625,0,0,0.0087890625,64.810546875,0)" xlink:href="#aW"/><use transform="matrix(0.0087890625,0,0,0.0087890625,75.6123046875,0)" xlink:href="#aT"/><use transform="matrix(0.0087890625,0,0,0.0087890625,86.4140625,0)" xlink:href="#be"/><use transform="matrix(0.0087890625,0,0,0.0087890625,97.2158203125,0)" xlink:href="#be"/><use transform="matrix(0.0087890625,0,0,0.0087890625,108.017578125,0)" xlink:href="#aZ"/><use transform="matrix(0.0087890625,0,0,0.0087890625,118.8193359375,0)" xlink:href="#be"/><use transform="matrix(0.0087890625,0,0,0.0087890625,129.62109375,0)" xlink:href="#bw"/><use transform="matrix(0.0087890625,0,0,0.0087890625,140.4228515625,0)" xlink:href="#bS"/><use transform="matrix(0.0087890625,0,0,0.0087890625,151.224609375,0)" xlink:href="#aS"/><use transform="matrix(0.0087890625,0,0,0.0087890625,162.0263671875,0)" xlink:href="#bz"/></g><g id="Y"><use transform="matrix(0.007703993055555556,0,0,0.007703993055555556,0,0)" xlink:href="#bm"/><use transform="matrix(0.007703993055555556,0,0,0.007703993055555556,9.468207465277779,0)" xlink:href="#br"/><use transform="matrix(0.007703993055555556,0,0,0.007703993055555556,18.936414930555557,0)" xlink:href="#aJ"/><use transform="matrix(0.007703993055555556,0,0,0.007703993055555556,28.404622395833336,0)" xlink:href="#bG"/><use transform="matrix(0.007703993055555556,0,0,0.007703993055555556,37.872829861111114,0)" xlink:href="#aI"/><use transform="matrix(0.007703993055555556,0,0,0.007703993055555556,47.34103732638889,0)" xlink:href="#bk"/><use transform="matrix(0.007703993055555556,0,0,0.007703993055555556,56.80924479166667,0)" xlink:href="#bs"/></g><g id="Z"><use transform="matrix(0.007703993055555556,0,0,0.007703993055555556,0,0)" xlink:href="#aG"/><use transform="matrix(0.007703993055555556,0,0,0.007703993055555556,9.468207465277779,0)" xlink:href="#bF"/><use transform="matrix(0.007703993055555556,0,0,0.007703993055555556,18.936414930555557,0)" xlink:href="#bq"/><use transform="matrix(0.007703993055555556,0,0,0.007703993055555556,28.404622395833336,0)" xlink:href="#bq"/><use transform="matrix(0.007703993055555556,0,0,0.007703993055555556,37.872829861111114,0)" xlink:href="#aJ"/><use transform="matrix(0.007703993055555556,0,0,0.007703993055555556,47.34103732638889,0)" xlink:href="#br"/><use transform="matrix(0.007703993055555556,0,0,0.007703993055555556,56.80924479166667,0)" xlink:href="#bi"/></g><g id="aa"><use transform="matrix(0.007703993055555556,0,0,0.007703993055555556,0,0)" xlink:href="#bQ"/><use transform="matrix(0.007703993055555556,0,0,0.007703993055555556,9.468207465277779,0)" xlink:href="#aJ"/><use transform="matrix(0.007703993055555556,0,0,0.007703993055555556,18.936414930555557,0)" xlink:href="#br"/></g><g id="ab"><use transform="matrix(0.007703993055555556,0,0,0.007703993055555556,0,0)" xlink:href="#bq"/><use transform="matrix(0.007703993055555556,0,0,0.007703993055555556,9.468207465277779,0)" xlink:href="#aF"/><use transform="matrix(0.007703993055555556,0,0,0.007703993055555556,18.936414930555557,0)" xlink:href="#br"/><use transform="matrix(0.007703993055555556,0,0,0.007703993055555556,28.404622395833336,0)" xlink:href="#aF"/><use transform="matrix(0.007703993055555556,0,0,0.007703993055555556,37.872829861111114,0)" xlink:href="#bj"/><use transform="matrix(0.007703993055555556,0,0,0.007703993055555556,47.34103732638889,0)" xlink:href="#bj"/><use transform="matrix(0.007703993055555556,0,0,0.007703993055555556,56.80924479166667,0)" xlink:href="#bs"/><use transform="matrix(0.007703993055555556,0,0,0.007703993055555556,66.27745225694446,0)" xlink:href="#bj"/></g><g id="ac"><use transform="matrix(0.007703993055555556,0,0,0.007703993055555556,0,0)" xlink:href="#bq"/><use transform="matrix(0.007703993055555556,0,0,0.007703993055555556,9.468207465277779,0)" xlink:href="#br"/><use transform="matrix(0.007703993055555556,0,0,0.007703993055555556,18.936414930555557,0)" xlink:href="#aJ"/><use transform="matrix(0.007703993055555556,0,0,0.007703993055555556,28.404622395833336,0)" xlink:href="#bn"/><use transform="matrix(0.007703993055555556,0,0,0.007703993055555556,37.872829861111114,0)" xlink:href="#bs"/><use transform="matrix(0.007703993055555556,0,0,0.007703993055555556,47.34103732638889,0)" xlink:href="#aG"/><use transform="matrix(0.007703993055555556,0,0,0.007703993055555556,56.80924479166667,0)" xlink:href="#aG"/><use transform="matrix(0.007703993055555556,0,0,0.007703993055555556,66.27745225694446,0)" xlink:href="#bs"/><use transform="matrix(0.007703993055555556,0,0,0.007703993055555556,75.74565972222223,0)" xlink:href="#aG"/></g><path d="M1018 0H814c-67-224-138-444-200-673C552-442 476-224 407 0H204L21-1082h178c43 310 105 601 126 933 54-225 128-425 193-638h193c63 212 134 415 185 638 22-336 90-622 136-933h176" id="bT"/><g id="ad"><use transform="matrix(0.007703993055555556,0,0,0.007703993055555556,0,0)" xlink:href="#bT"/><use transform="matrix(0.007703993055555556,0,0,0.007703993055555556,9.468207465277779,0)" xlink:href="#aI"/><use transform="matrix(0.007703993055555556,0,0,0.007703993055555556,18.936414930555557,0)" xlink:href="#bi"/><use transform="matrix(0.007703993055555556,0,0,0.007703993055555556,28.404622395833336,0)" xlink:href="#aH"/></g><path d="M530 26c-303-6-392-228-392-558 0-187 33-329 98-424s162-142 293-142c178 0 273 69 334 184 1-56 3-122 12-169h175c-6 88-6 180-6 282V425H863c1-202-4-411 4-607h-2C805-59 713 29 530 26zm47-139c234 0 286-193 286-441 0-238-55-411-284-411-223 0-255 198-255 427 0 227 33 425 253 425" id="bU"/><g id="ae"><use transform="matrix(0.007703993055555556,0,0,0.007703993055555556,0,0)" xlink:href="#aD"/><use transform="matrix(0.007703993055555556,0,0,0.007703993055555556,9.468207465277779,0)" xlink:href="#bU"/><use transform="matrix(0.007703993055555556,0,0,0.007703993055555556,18.936414930555557,0)" xlink:href="#bk"/><use transform="matrix(0.007703993055555556,0,0,0.007703993055555556,28.404622395833336,0)" xlink:href="#bt"/></g><g id="af"><use transform="matrix(0.007703993055555556,0,0,0.007703993055555556,0,0)" xlink:href="#bD"/><use transform="matrix(0.007703993055555556,0,0,0.007703993055555556,9.468207465277779,0)" xlink:href="#aF"/><use transform="matrix(0.007703993055555556,0,0,0.007703993055555556,18.936414930555557,0)" xlink:href="#br"/></g><path d="M211 0v-1349h295v1121h616V0H211" id="bV"/><path d="M1108-33c-3 314-178 467-492 467-243 0-400-94-447-291l281-33c17 79 82 141 174 141 176 0 212-155 205-347-2-40 5-80 0-115C773-85 665-12 501-12c-288 0-377-242-377-538 0-242 65-426 223-510 50-26 108-39 175-39 160 0 253 78 307 191h5c1-58 5-125 14-174h266c-12 335-3 703-6 1049zM811-384c25-82 27-259 1-342-30-99-77-180-190-180-172 0-205 171-205 356 0 116 18 202 54 258 48 76 129 107 221 70 62-25 96-86 119-162" id="bW"/><path d="M609-1161c-125 0-218 36-218 153 0 149 166 161 290 196 235 67 484 129 484 421 0 300-239 408-554 411C302 23 93-114 38-367l285-37c32 128 131 205 296 203 143-2 259-31 259-173 0-164-197-172-333-212-218-64-441-131-441-405 0-276 231-379 511-379 299 0 463 114 513 363l-286 29c-28-115-96-183-233-183" id="bX"/><g id="ah"><use transform="matrix(0.007703993055555556,0,0,0.007703993055555556,0,0)" xlink:href="#aR"/><use transform="matrix(0.0087890625,0,0,0.0087890625,9.468207465277779,0)" xlink:href="#bA"/><use transform="matrix(0.0087890625,0,0,0.0087890625,20.26996527777778,0)" xlink:href="#aW"/><use transform="matrix(0.0087890625,0,0,0.0087890625,31.07172309027778,0)" xlink:href="#by"/><use transform="matrix(0.0087890625,0,0,0.0087890625,41.87348090277778,0)" xlink:href="#bP"/><use transform="matrix(0.0087890625,0,0,0.0087890625,52.67523871527778,0)" xlink:href="#aU"/><use transform="matrix(0.0087890625,0,0,0.0087890625,63.47699652777778,0)" xlink:href="#bV"/><use transform="matrix(0.0087890625,0,0,0.0087890625,74.27875434027777,0)" xlink:href="#aX"/><use transform="matrix(0.0087890625,0,0,0.0087890625,85.08051215277777,0)" xlink:href="#bW"/><use transform="matrix(0.0087890625,0,0,0.0087890625,95.88226996527777,0)" xlink:href="#bI"/><use transform="matrix(0.0087890625,0,0,0.0087890625,106.68402777777777,0)" xlink:href="#aU"/><use transform="matrix(0.0087890625,0,0,0.0087890625,117.48578559027777,0)" xlink:href="#bX"/><use transform="matrix(0.0087890625,0,0,0.0087890625,128.28754340277777,0)" xlink:href="#aU"/><use transform="matrix(0.0087890625,0,0,0.0087890625,139.08930121527777,0)" xlink:href="#aT"/><use transform="matrix(0.0087890625,0,0,0.0087890625,149.89105902777777,0)" xlink:href="#bz"/><use transform="matrix(0.0087890625,0,0,0.0087890625,160.69281684027777,0)" xlink:href="#bA"/></g><g id="ai"><use transform="matrix(0.007703993055555556,0,0,0.007703993055555556,0,0)" xlink:href="#bm"/><use transform="matrix(0.007703993055555556,0,0,0.007703993055555556,9.468207465277779,0)" xlink:href="#br"/><use transform="matrix(0.007703993055555556,0,0,0.007703993055555556,18.936414930555557,0)" xlink:href="#aJ"/><use transform="matrix(0.007703993055555556,0,0,0.007703993055555556,28.404622395833336,0)" xlink:href="#bG"/><use transform="matrix(0.007703993055555556,0,0,0.007703993055555556,37.872829861111114,0)" xlink:href="#aI"/><use transform="matrix(0.007703993055555556,0,0,0.007703993055555556,47.34103732638889,0)" xlink:href="#bk"/><use transform="matrix(0.007703993055555556,0,0,0.007703993055555556,56.80924479166667,0)" xlink:href="#bs"/></g><g id="aj"><use transform="matrix(0.007703993055555556,0,0,0.007703993055555556,0,0)" xlink:href="#bj"/><use transform="matrix(0.007703993055555556,0,0,0.007703993055555556,9.468207465277779,0)" xlink:href="#aJ"/><use transform="matrix(0.007703993055555556,0,0,0.007703993055555556,18.936414930555557,0)" xlink:href="#bl"/><use transform="matrix(0.007703993055555556,0,0,0.007703993055555556,28.404622395833336,0)" xlink:href="#bl"/><use transform="matrix(0.007703993055555556,0,0,0.007703993055555556,37.872829861111114,0)" xlink:href="#aI"/><use transform="matrix(0.007703993055555556,0,0,0.007703993055555556,47.34103732638889,0)" xlink:href="#aK"/><use transform="matrix(0.007703993055555556,0,0,0.007703993055555556,56.80924479166667,0)" xlink:href="#bl"/></g><path d="M872-915c-35-112-84-223-220-223-91 0-156 41-204 116-89 137-87 550 2 688 51 79 116 122 209 122 150 0 197-126 240-244l273 52C1094-168 961 20 656 20 239 20 80-262 80-681c0-418 154-689 568-689 289 0 425 167 496 389" id="bY"/><g id="al"><use transform="matrix(0.0087890625,0,0,0.0087890625,0,0)" xlink:href="#bb"/><use transform="matrix(0.0087890625,0,0,0.0087890625,10.8017578125,0)" xlink:href="#ba"/><use transform="matrix(0.0087890625,0,0,0.0087890625,21.603515625,0)" xlink:href="#aU"/><use transform="matrix(0.0087890625,0,0,0.0087890625,32.4052734375,0)" xlink:href="#aW"/><use transform="matrix(0.0087890625,0,0,0.0087890625,43.20703125,0)" xlink:href="#by"/><use transform="matrix(0.0087890625,0,0,0.0087890625,54.0087890625,0)" xlink:href="#bA"/><use transform="matrix(0.0087890625,0,0,0.0087890625,64.810546875,0)" xlink:href="#bY"/><use transform="matrix(0.0087890625,0,0,0.0087890625,75.6123046875,0)" xlink:href="#aX"/><use transform="matrix(0.0087890625,0,0,0.0087890625,86.4140625,0)" xlink:href="#aS"/><use transform="matrix(0.0087890625,0,0,0.0087890625,97.2158203125,0)" xlink:href="#aZ"/></g><g id="am"><use transform="matrix(0.007703993055555556,0,0,0.007703993055555556,0,0)" xlink:href="#aC"/><use transform="matrix(0.007703993055555556,0,0,0.007703993055555556,9.468207465277779,0)" xlink:href="#bi"/><use transform="matrix(0.007703993055555556,0,0,0.007703993055555556,18.936414930555557,0)" xlink:href="#br"/><use transform="matrix(0.007703993055555556,0,0,0.007703993055555556,28.404622395833336,0)" xlink:href="#aI"/><use transform="matrix(0.007703993055555556,0,0,0.007703993055555556,37.872829861111114,0)" xlink:href="#bq"/></g><g id="an"><use transform="matrix(0.007703993055555556,0,0,0.007703993055555556,0,0)" xlink:href="#aR"/><use transform="matrix(0.007703993055555556,0,0,0.007703993055555556,9.468207465277779,0)" xlink:href="#bq"/><use transform="matrix(0.007703993055555556,0,0,0.007703993055555556,18.936414930555557,0)" xlink:href="#bO"/></g><g id="ao"><use transform="matrix(0.007703993055555556,0,0,0.007703993055555556,0,0)" xlink:href="#bn"/><use transform="matrix(0.007703993055555556,0,0,0.007703993055555556,9.468207465277779,0)" xlink:href="#aJ"/><use transform="matrix(0.007703993055555556,0,0,0.007703993055555556,18.936414930555557,0)" xlink:href="#bk"/><use transform="matrix(0.007703993055555556,0,0,0.007703993055555556,28.404622395833336,0)" xlink:href="#bs"/></g><g id="ap"><use transform="matrix(0.007703993055555556,0,0,0.007703993055555556,0,0)" xlink:href="#bj"/><use transform="matrix(0.007703993055555556,0,0,0.007703993055555556,9.468207465277779,0)" xlink:href="#aJ"/><use transform="matrix(0.007703993055555556,0,0,0.007703993055555556,18.936414930555557,0)" xlink:href="#bl"/><use transform="matrix(0.007703993055555556,0,0,0.007703993055555556,28.404622395833336,0)" xlink:href="#bl"/><use transform="matrix(0.007703993055555556,0,0,0.007703993055555556,37.872829861111114,0)" xlink:href="#aI"/><use transform="matrix(0.007703993055555556,0,0,0.007703993055555556,47.34103732638889,0)" xlink:href="#aK"/><use transform="matrix(0.007703993055555556,0,0,0.007703993055555556,56.80924479166667,0)" xlink:href="#bl"/></g><path d="M429-1484c1 190-1 388 0 572 54-116 155-191 317-191 300 0 386 257 386 563 0 241-73 429-226 518-49 28-106 42-169 42-162 0-251-81-306-196h-4c-1 59-5 127-15 176H140c4-67 9-153 8-236v-1248h281zm66 648c-93 114-92 466 1 585 35 45 77 79 142 79 64 0 112-31 148-92 69-115 68-440-2-561-39-68-131-111-221-70-25 11-46 32-68 59" id="bZ"/><g id="aq"><use transform="matrix(0.0087890625,0,0,0.0087890625,0,0)" xlink:href="#aT"/><use transform="matrix(0.0087890625,0,0,0.0087890625,10.8017578125,0)" xlink:href="#aS"/><use transform="matrix(0.0087890625,0,0,0.0087890625,21.603515625,0)" xlink:href="#bN"/><use transform="matrix(0.0087890625,0,0,0.0087890625,32.4052734375,0)" xlink:href="#bV"/><use transform="matrix(0.0087890625,0,0,0.0087890625,43.20703125,0)" xlink:href="#by"/><use transform="matrix(0.0087890625,0,0,0.0087890625,54.0087890625,0)" xlink:href="#bZ"/></g><g id="ar"><use transform="matrix(0.007703993055555556,0,0,0.007703993055555556,0,0)" xlink:href="#bC"/><use transform="matrix(0.007703993055555556,0,0,0.007703993055555556,9.468207465277779,0)" xlink:href="#bs"/><use transform="matrix(0.007703993055555556,0,0,0.007703993055555556,18.936414930555557,0)" xlink:href="#aK"/><use transform="matrix(0.007703993055555556,0,0,0.007703993055555556,28.404622395833336,0)" xlink:href="#bs"/><use transform="matrix(0.007703993055555556,0,0,0.007703993055555556,37.872829861111114,0)" xlink:href="#br"/><use transform="matrix(0.007703993055555556,0,0,0.007703993055555556,47.34103732638889,0)" xlink:href="#aF"/><use transform="matrix(0.007703993055555556,0,0,0.007703993055555556,56.80924479166667,0)" xlink:href="#bi"/><use transform="matrix(0.007703993055555556,0,0,0.007703993055555556,66.27745225694446,0)" xlink:href="#bs"/></g><g id="as"><use transform="matrix(0.007703993055555556,0,0,0.007703993055555556,0,0)" xlink:href="#aF"/><use transform="matrix(0.007703993055555556,0,0,0.007703993055555556,9.468207465277779,0)" xlink:href="#bk"/><use transform="matrix(0.007703993055555556,0,0,0.007703993055555556,18.936414930555557,0)" xlink:href="#bG"/><use transform="matrix(0.007703993055555556,0,0,0.007703993055555556,28.404622395833336,0)" xlink:href="#bs"/><use transform="matrix(0.007703993055555556,0,0,0.007703993055555556,37.872829861111114,0)" xlink:href="#br"/><use transform="matrix(0.007703993055555556,0,0,0.007703993055555556,47.34103732638889,0)" xlink:href="#aG"/><use transform="matrix(0.007703993055555556,0,0,0.007703993055555556,56.80924479166667,0)" xlink:href="#aF"/><use transform="matrix(0.007703993055555556,0,0,0.007703993055555556,66.27745225694446,0)" xlink:href="#br"/><use transform="matrix(0.007703993055555556,0,0,0.007703993055555556,75.74565972222223,0)" xlink:href="#aI"/><use transform="matrix(0.007703993055555556,0,0,0.007703993055555556,85.2138671875,0)" xlink:href="#bs"/><use transform="matrix(0.007703993055555556,0,0,0.007703993055555556,94.68207465277777,0)" xlink:href="#aG"/></g><g id="at"><use transform="matrix(0.007703993055555556,0,0,0.007703993055555556,0,0)" xlink:href="#bi"/><use transform="matrix(0.007703993055555556,0,0,0.007703993055555556,9.468207465277779,0)" xlink:href="#aH"/><use transform="matrix(0.007703993055555556,0,0,0.007703993055555556,18.936414930555557,0)" xlink:href="#aF"/><use transform="matrix(0.007703993055555556,0,0,0.007703993055555556,28.404622395833336,0)" xlink:href="#bi"/></g><g id="au"><use transform="matrix(0.007703993055555556,0,0,0.007703993055555556,0,0)" xlink:href="#bn"/><use transform="matrix(0.007703993055555556,0,0,0.007703993055555556,9.468207465277779,0)" xlink:href="#aF"/><use transform="matrix(0.007703993055555556,0,0,0.007703993055555556,18.936414930555557,0)" xlink:href="#aK"/></g><g id="av"><use transform="matrix(0.007703993055555556,0,0,0.007703993055555556,0,0)" xlink:href="#bQ"/><use transform="matrix(0.007703993055555556,0,0,0.007703993055555556,9.468207465277779,0)" xlink:href="#aJ"/><use transform="matrix(0.007703993055555556,0,0,0.007703993055555556,18.936414930555557,0)" xlink:href="#aJ"/><use transform="matrix(0.007703993055555556,0,0,0.007703993055555556,28.404622395833336,0)" xlink:href="#bj"/></g><g id="aw"><use transform="matrix(0.007703993055555556,0,0,0.007703993055555556,0,0)" xlink:href="#bi"/><use transform="matrix(0.007703993055555556,0,0,0.007703993055555556,9.468207465277779,0)" xlink:href="#aH"/><use transform="matrix(0.007703993055555556,0,0,0.007703993055555556,18.936414930555557,0)" xlink:href="#bs"/></g><g id="ax"><use transform="matrix(0.007703993055555556,0,0,0.007703993055555556,0,0)" xlink:href="#bl"/><use transform="matrix(0.007703993055555556,0,0,0.007703993055555556,9.468207465277779,0)" xlink:href="#aI"/><use transform="matrix(0.007703993055555556,0,0,0.007703993055555556,18.936414930555557,0)" xlink:href="#bG"/><use transform="matrix(0.007703993055555556,0,0,0.007703993055555556,28.404622395833336,0)" xlink:href="#bs"/><use transform="matrix(0.007703993055555556,0,0,0.007703993055555556,37.872829861111114,0)" xlink:href="#aK"/></g><g id="ay"><use transform="matrix(0.007703993055555556,0,0,0.007703993055555556,0,0)" xlink:href="#aA"/><use transform="matrix(0.007703993055555556,0,0,0.007703993055555556,9.468207465277779,0)" xlink:href="#aA"/></g></defs></g></svg>