<svg xmlns="http://www.w3.org/2000/svg" xmlns:xlink="http://www.w3.org/1999/xlink" xmlns:lucid="lucid" width="951" height="800"><g transform="translate(-380 -140)" lucid:page-tab-id="0_0"><path d="M930 268c0 6.63-40.3 12-90 12s-90-5.37-90-12v-96c0-6.63 40.3-12 90-12s90 5.37 90 12z" stroke="#000" stroke-width="2" fill="#fff"/><path d="M930 172c0 6.63-40.3 12-90 12s-90-5.37-90-12" stroke="#000" stroke-width="2" fill="none"/><use xlink:href="#a" transform="matrix(1,0,0,1,755,189) translate(58.49560546875 21.396484375)"/><use xlink:href="#b" transform="matrix(1,0,0,1,755,189) translate(15.28857421875 39.396484375)"/><use xlink:href="#c" transform="matrix(1,0,0,1,755,189) translate(101.70263671875 39.396484375)"/><use xlink:href="#d" transform="matrix(1,0,0,1,755,189) translate(26.09033203125 57.396484375)"/><use xlink:href="#e" transform="matrix(1,0,0,1,755,189) translate(69.29736328125 75.396484375)"/><path d="M768 330h144l48 40-48 40H768l-48-40z" stroke="#000" stroke-width="2" fill="#fff"/><use xlink:href="#f" transform="matrix(1,0,0,1,725,335) translate(44.78857421875 31.396484375)"/><use xlink:href="#g" transform="matrix(1,0,0,1,725,335) translate(174.40966796875 31.396484375)"/><use xlink:href="#h" transform="matrix(1,0,0,1,725,335) translate(60.9912109375 49.396484375)"/><path d="M800 620h280v118H800z" stroke="#000" stroke-width="2" fill="#fff"/><path d="M828 620v118m224-118v118" stroke="#000" stroke-width="2" fill="none"/><use xlink:href="#i" transform="matrix(1,0,0,1,840,625) translate(8.68505859375 32.396484375)"/><use xlink:href="#j" transform="matrix(1,0,0,1,840,625) translate(95.09912109375 32.396484375)"/><use xlink:href="#k" transform="matrix(1,0,0,1,840,625) translate(127.50439453125 32.396484375)"/><use xlink:href="#l" transform="matrix(1,0,0,1,840,625) translate(51.89208984375 50.396484375)"/><use xlink:href="#m" transform="matrix(1,0,0,1,840,625) translate(105.90087890625 50.396484375)"/><use xlink:href="#n" transform="matrix(1,0,0,1,840,625) translate(3.2841796875 68.396484375)"/><use xlink:href="#o" transform="matrix(1,0,0,1,840,625) translate(132.9052734375 68.396484375)"/><use xlink:href="#p" transform="matrix(1,0,0,1,840,625) translate(46.4912109375 86.396484375)"/><path d="M1130 639h160v80h-160z" stroke="#000" stroke-width="2" fill="#fff"/><use xlink:href="#q" transform="matrix(1,0,0,1,1135,644) translate(10.189453125 31.396484375)"/><use xlink:href="#r" transform="matrix(1,0,0,1,1135,644) translate(4.78857421875 49.396484375)"/><use xlink:href="#s" transform="matrix(1,0,0,1,1135,644) translate(47.99560546875 49.396484375)"/><path d="M1080 490c0 38.66-31.34 70-70 70s-70-31.34-70-70 31.34-70 70-70 70 31.34 70 70z" stroke="#000" stroke-width="2" fill="#fff"/><use xlink:href="#t" transform="matrix(1,0,0,1,945,425) translate(38.49560546875 70.896484375)"/><path d="M962.56 370H1010v30.5" stroke="#000" stroke-width="2" fill="none"/><path d="M962.6 371h-2.24l1.2-1-1.2-1h2.23z"/><path d="M1010 415.76l-4.64-14.26h9.28z" stroke="#000" stroke-width="2"/><path d="M1130 450h160v80h-160z" stroke="#000" stroke-width="2" fill="#fff"/><use xlink:href="#q" transform="matrix(1,0,0,1,1135,455) translate(10.189453125 31.396484375)"/><use xlink:href="#u" transform="matrix(1,0,0,1,1135,455) translate(26.39208984375 49.396484375)"/><path d="M1128 490h-28.5" stroke="#000" stroke-width="2" fill="none"/><path d="M1129 491h-1.03v-2h1.03z"/><path d="M1084.24 490l14.26-4.64v9.28z" stroke="#000" stroke-width="2"/><path d="M1130 330h160v80h-160z" stroke="#000" stroke-width="2" fill="#fff"/><use xlink:href="#q" transform="matrix(1,0,0,1,1135,335) translate(10.189453125 31.396484375)"/><use xlink:href="#v" transform="matrix(1,0,0,1,1135,335) translate(53.396484375 49.396484375)"/><path d="M1210 412v18.5" stroke="#000" stroke-width="2" fill="none"/><path d="M1211 412.03h-2V411h2z"/><path d="M1210 445.76l-4.64-14.26h9.28z" stroke="#000" stroke-width="2"/><path d="M940 600.5V590h70v-10.5" stroke="#000" stroke-width="2" fill="none"/><path d="M940 615.76l-4.64-14.26h9.28zM1010 564.24l4.64 14.26h-9.28z" stroke="#000" stroke-width="2"/><path d="M840 282v28.5" stroke="#000" stroke-width="2" fill="none"/><path d="M840 281h1v1.03h-2v-1.06z"/><path d="M840 325.76l-4.64-14.26h9.28z" stroke="#000" stroke-width="2"/><path d="M1128 679h-28.5" stroke="#000" stroke-width="2" fill="none"/><path d="M1129 680h-1.03v-2h1.03z"/><path d="M1084.24 679l14.26-4.64v9.28z" stroke="#000" stroke-width="2"/><path d="M740 490c0 38.66-31.34 70-70 70s-70-31.34-70-70 31.34-70 70-70 70 31.34 70 70z" stroke="#000" stroke-width="2" fill="#fff"/><use xlink:href="#w" transform="matrix(1,0,0,1,605,425) translate(43.896484375 70.896484375)"/><path d="M717.44 370H669v30.53" stroke="#000" stroke-width="2" fill="none"/><path d="M718.44 370l1.2 1h-2.23v-2h2.24z"/><path d="M669 415.8l-4.63-14.27h9.27z" stroke="#000" stroke-width="2"/><path d="M798 679H670v-99.5" stroke="#000" stroke-width="2" fill="none"/><path d="M799 680h-1.03v-2H799z"/><path d="M670 564.24l4.64 14.26h-9.28z" stroke="#000" stroke-width="2"/><path d="M432 430h112c8.84 0 16 26.86 16 60s-7.16 60-16 60H432l-32-60z" stroke="#000" stroke-width="2" fill="#fff"/><use xlink:href="#x" transform="matrix(1,0,0,1,405,435) translate(4.78857421875 60.396484375)"/><path d="M598 490h-18.5" stroke="#000" stroke-width="2" fill="none"/><path d="M599 490l.03 1h-1.06v-2h1.07z"/><path d="M564.24 490l14.26-4.64v9.28z" stroke="#000" stroke-width="2"/><path d="M840 412v128h-90v134c-2.76 0-5 2.24-5 5s2.24 5 5 5v166h100.5" stroke="#000" stroke-width="2" fill="none"/><path d="M841 412.03h-2V411h2z"/><path d="M865.76 850l-14.26 4.64v-9.28z" stroke="#000" stroke-width="2"/><path d="M1010 850c0 38.66-31.34 70-70 70s-70-31.34-70-70 31.34-70 70-70 70 31.34 70 70z" stroke="#000" stroke-width="2" fill="#fff"/><use xlink:href="#y" transform="matrix(1,0,0,1,875,785) translate(6.09033203125 52.896484375)"/><use xlink:href="#z" transform="matrix(1,0,0,1,875,785) translate(33.0947265625 70.896484375)"/><use xlink:href="#A" transform="matrix(1,0,0,1,875,785) translate(16.89208984375 88.896484375)"/><path d="M940 740v20.5" stroke="#000" stroke-width="2" fill="none"/><path d="M941 740.03h-2V739h2z"/><path d="M940 775.76l-4.64-14.26h9.28z" stroke="#000" stroke-width="2"/><path d="M1140 268c0 6.63-40.3 12-90 12s-90-5.37-90-12v-96c0-6.63 40.3-12 90-12s90 5.37 90 12z" fill="#fff"/><path d="M1130.36 273.38l-1.5.4-5.96 1.26h-.05m-7.6 1.17l-3.2.5-4.44.42m-7.65.74l-7.66.73m-7.7.32l-7.68.3m-7.7.33l-7.68.32m-7.7.1l-3.84.03-3.85-.1m-7.7-.2l-7.68-.2m-7.7-.22l-7.68-.2m-7.68-.62l-7.67-.62m-7.67-.62h-.1l-7.52-1.04m-7.6-1.17l-4.73-.9-2.8-.72m-7.2-2.6l-.42-.25-.4-.27-.33-.24-.25-.2-.2-.2-.16-.16-.13-.15-.1-.13-.1-.13-.07-.12-.06-.12-.05-.1-.04-.1-.03-.1-.02-.1-.02-.1-.02-.1V264m0-8v-8m0-8v-8m0-8v-8m0-8v-8m0-8v-8m0-8v-4.18l.02-.1.02-.1.03-.08.03-.1.04-.1.04-.1.06-.12.07-.12.1-.13.1-.14.12-.15.15-.16.2-.18.22-.2.3-.23.38-.25.5-.3.04-.03m7.22-2.6l1.5-.4 5.96-1.26h.05m7.6-1.17l3.2-.5 4.44-.42m7.65-.74l7.66-.73m7.7-.32l7.68-.3m7.7-.33l7.68-.32m7.7-.1l3.84-.03 3.85.1m7.7.2l7.68.2m7.7.22l7.68.2m7.68.62l7.67.62m7.67.62h.1l7.52 1.04m7.6 1.17l4.73.9 2.8.72m7.2 2.6l.42.25.4.27.33.24.25.2.2.2.16.16.13.15.1.13.1.13.07.12.06.12.05.1.04.1.03.1.02.1.02.1.02.1v4.2m0 8v8m0 8v8m0 8v8m0 8v8m0 8v8m0 8v4.18l-.02.1-.02.1-.03.08-.03.1-.04.1-.04.1-.06.12-.07.12-.1.13-.1.14-.12.15-.15.16-.2.18-.22.2-.3.23-.38.25-.5.3-.04.03" stroke="#000" stroke-width="2" fill="none"/><path d="M1140 172c0 6.63-40.3 12-90 12s-90-5.37-90-12" fill="none"/><path d="M1140 172v.18l-.02.1-.02.1-.03.08-.03.1-.04.1-.04.1-.06.12-.07.12-.1.13-.1.14-.12.15-.15.16-.2.18-.22.2-.3.23-.38.25-.5.3-.04.03m-7.22 2.6l-1.5.4-5.96 1.26h-.05m-7.6 1.17l-3.2.5-4.44.42m-7.65.74l-7.66.73m-7.7.32l-7.68.3m-7.7.33l-7.68.32m-7.7.1l-3.84.03-3.85-.1m-7.7-.2l-7.68-.2m-7.7-.22l-7.68-.2m-7.68-.62l-7.67-.62m-7.67-.62h-.1l-7.52-1.04m-7.6-1.17l-4.73-.9-2.8-.72m-7.2-2.6l-.42-.25-.4-.27-.33-.24-.25-.2-.2-.2-.16-.16-.13-.15-.1-.13-.1-.13-.07-.12-.06-.12-.05-.1-.04-.1-.03-.1-.02-.1-.02-.1-.02-.1V172" stroke="#000" stroke-width="2" fill="none"/><g><use xlink:href="#y" transform="matrix(1,0,0,1,965,189) translate(26.09033203125 39.396484375)"/><use xlink:href="#B" transform="matrix(1,0,0,1,965,189) translate(47.69384765625 57.396484375)"/></g><path d="M1049.98 282l-.02 1.05-.12 1.86-.18 1.7-.23 1.55-.27 1.44-.3 1.33-.36 1.25-.38 1.18-.42 1.1-.44 1.07-.47 1-.52.97-.53.92-.57.9-.6.87-.65.83-.68.83-.73.8-.78.8-.83.78-.9.78-.97.77-1.06.76-1.16.77-1.27.78-1.42.8-1.6.78-1.8.8-2.1.84-2.48.86-3 .9-3.78.97-5.2 1.1-9.14 1.52-30.07 4.47-6.62 1.4-5.1 1.3-4.2 1.28-3.63 1.25-3.18 1.26-2.85 1.27-2.57 1.27-2.35 1.3-.47.27" fill="none"/><path d="M1049.98 282l-.02 1.05-.12 1.86-.1 1.05m-1.73 7.7l-.3.82-.44 1.06-.47 1-.52.97-.53.92-.57.9-.6.87-.3.4m-5.65 5.5l-.66.46-1.16.77-1.27.78-1.42.8-1.6.78-.72.33m-7.43 2.7l-1.22.38-3.8.97-2.66.56m-7.78 1.42l-3.9.65-3.92.58m-7.83 1.17l-7.82 1.16m-7.83 1.16l-2.67.4-5.1 1.08m-7.66 1.94l-3.18.96-3.63 1.25-.7.28m-7.24 3.2l-.65.32-2.35 1.3-.47.27" stroke="#000" stroke-width="2" fill="none"/><path d="M1050 281h1l-.02 1.05-2-.04.02-1.03z"/><path d="M932.35 341.5l7.93-12.72 5.97 7.1z" stroke="#000" stroke-width="2"/><path d="M1012 850h308V220h-160.5" fill="none"/><path d="M1012 850h3.98m7.96 0h7.96m7.96 0h7.96m7.96 0h7.96m7.96 0h7.96m7.96 0h7.96m7.96 0h7.96m7.96 0h7.96m7.96 0h7.96m7.96 0h7.96m7.96 0h7.96m7.96 0h7.96m7.96 0h7.96m7.96 0h7.96m7.96 0h7.96m7.96 0h7.96m7.96 0h7.96m7.96 0h7.97m7.96 0h7.95m7.96 0h7.97m1.53-6.43v-7.96m0-7.95v-7.96m0-7.97v-7.96m0-7.96v-7.95m0-7.96v-7.97m0-7.96V756m0-7.95v-7.96m0-7.97v-7.96m0-7.96v-7.95m0-7.96v-7.97m0-7.96v-7.96m0-7.95v-7.96m0-7.97v-7.96m0-7.96v-7.95m0-7.96v-7.97m0-7.96v-7.96m0-7.95v-7.96m0-7.97v-7.96m0-7.96v-7.95m0-7.96v-7.97m0-7.96v-7.96m0-7.95v-7.96m0-7.97v-7.96m0-7.96v-7.95m0-7.96v-7.97m0-7.96v-7.96m0-7.95v-7.96m0-7.97v-7.96m0-7.96v-7.95m0-7.96v-7.97m0-7.96V358m0-7.95v-7.96m0-7.97v-7.96m0-7.96v-7.95m0-7.96v-7.97m0-7.96v-7.96m0-7.95v-7.96m0-7.98v-7.96m0-7.96v-7.96m0-7.96V220h-5.28m-7.96 0h-7.96m-7.96 0h-7.96m-7.96 0h-7.96m-7.96 0h-7.96m-7.96 0h-7.96m-7.96 0h-7.96m-7.96 0h-7.96m-7.96 0h-7.96m-7.96 0h-7.96m-7.96 0h-3.98" stroke="#000" stroke-width="2" fill="none"/><path d="M1012.03 851h-1.07l.04-1-.03-1h1.06z"/><path d="M1144.24 220l14.26-4.64v9.28z" stroke="#000" stroke-width="2"/><defs><path d="M285-1169c8 382 2 780 4 1169H129v-1349h237c86 239 188 461 253 720 69-258 169-481 255-720h225V0H937c2-390-5-788 6-1169-75 255-170 488-259 729H547c-90-240-185-475-262-729" id="C"/><path d="M912-211c-10-84-18-177-18-274v-864h172V0H836L316-1130c7 79 16 167 16 254V0H162v-1349h222" id="D"/><path d="M202-1349h823v156H709v1037h316V0H202v-156h316v-1037H202v-156" id="E"/><path d="M614-1226c-167 1-283 53-283 213 0 183 186 193 334 234 230 63 463 120 463 409 0 286-219 387-518 390C309 23 131-98 79-338l185-37c34 165 149 248 351 246 184-2 324-58 324-238 0-203-207-221-372-266-210-57-422-111-422-377 0-267 201-356 470-360 279-5 430 101 480 324l-188 33c-28-141-121-215-293-213" id="F"/><path d="M709-1193V0H519v-1193H76v-156h1076v156H709" id="G"/><g id="a"><use transform="matrix(0.0087890625,0,0,0.0087890625,0,0)" xlink:href="#C"/><use transform="matrix(0.0087890625,0,0,0.0087890625,10.8017578125,0)" xlink:href="#D"/><use transform="matrix(0.0087890625,0,0,0.0087890625,21.603515625,0)" xlink:href="#E"/><use transform="matrix(0.0087890625,0,0,0.0087890625,32.4052734375,0)" xlink:href="#F"/><use transform="matrix(0.0087890625,0,0,0.0087890625,43.20703125,0)" xlink:href="#G"/></g><path d="M385-1193v494h676v158H385V0H194v-1349h891v156H385" id="H"/><path d="M1000-272c3 95 12 159 101 161 21 0 41-3 59-7V-6c-44 10-86 16-139 16-141 2-191-84-197-217h-6C748-76 648 20 446 20c-207 0-318-120-318-322 0-266 194-348 454-354l236-4c12-191-40-305-222-305-140 0-220 47-232 172l-188-17c33-204 181-292 423-292 255 0 401 118 401 364v466zm-683-27c0 109 63 184 175 182 166-3 259-96 306-217 24-65 20-120 20-200-232 7-501-28-501 235" id="I"/><path d="M873-819c-18-114-119-146-250-146-163 0-245 50-245 151 0 151 170 148 294 185 182 54 388 94 388 320 0 240-189 325-439 329-245 4-410-69-454-268l159-31c24 133 136 168 295 165 144-2 270-31 270-171 0-164-195-160-331-202-167-52-350-87-350-299 0-218 173-315 413-313 220 2 373 77 412 260" id="J"/><path d="M648-963c-190 6-283 138-283 336V0H185v-1484h181c-2 197 6 404-9 587h3c62-120 159-205 339-205 242 0 351 135 350 381V0H868v-695c1-168-57-273-220-268" id="K"/><path d="M745-142h380V0H143v-142h422v-798H246v-142h499v940zM545-1292v-192h200v192H545" id="L"/><path d="M615-1102c343 0 484 203 482 560-1 347-147 562-488 562-336 0-475-219-479-562-4-349 156-560 485-560zm-8 989c240 0 301-180 301-429 0-245-55-427-290-427-236 0-299 181-299 427 0 243 61 429 288 429" id="M"/><path d="M706-1102c241 0 344 136 343 381V0H868v-695c1-168-57-273-220-268-190 6-283 138-283 336V0H185c-3-360 6-732-6-1082h170c4 54 7 126 8 185h3c63-121 164-204 346-205" id="N"/><g id="b"><use transform="matrix(0.0087890625,0,0,0.0087890625,0,0)" xlink:href="#H"/><use transform="matrix(0.0087890625,0,0,0.0087890625,10.8017578125,0)" xlink:href="#I"/><use transform="matrix(0.0087890625,0,0,0.0087890625,21.603515625,0)" xlink:href="#J"/><use transform="matrix(0.0087890625,0,0,0.0087890625,32.4052734375,0)" xlink:href="#K"/><use transform="matrix(0.0087890625,0,0,0.0087890625,43.20703125,0)" xlink:href="#L"/><use transform="matrix(0.0087890625,0,0,0.0087890625,54.0087890625,0)" xlink:href="#M"/><use transform="matrix(0.0087890625,0,0,0.0087890625,64.810546875,0)" xlink:href="#N"/></g><g id="c"><use transform="matrix(0.0087890625,0,0,0.0087890625,0,0)" xlink:href="#C"/><use transform="matrix(0.0087890625,0,0,0.0087890625,10.8017578125,0)" xlink:href="#D"/><use transform="matrix(0.0087890625,0,0,0.0087890625,21.603515625,0)" xlink:href="#E"/><use transform="matrix(0.0087890625,0,0,0.0087890625,32.4052734375,0)" xlink:href="#F"/><use transform="matrix(0.0087890625,0,0,0.0087890625,43.20703125,0)" xlink:href="#G"/></g><path d="M650-1214c-281 0-336 244-336 533 0 295 60 546 347 546 188 0 263-142 322-282l159 65C1058-155 935 20 659 20c-401 0-546-295-546-701 0-407 135-689 536-689 264 0 391 146 466 335l-168 65c-47-129-127-244-297-244" id="O"/><path d="M1034 0L896-382H333L196 0H0l510-1349h217L1228 0h-194zM847-531c-77-225-157-447-231-674-69 231-154 451-232 674h463" id="P"/><path d="M1121-976c0 225-142 341-344 379L1177 0H957L591-575H353V0H162v-1349h482c281 3 477 100 477 373zM633-726c181-1 296-73 296-247 0-149-101-223-304-223H353v470h280" id="Q"/><path d="M148-1120c216-7 379-89 463-229h166v1204h353V0H157v-145h439v-1021c-79 124-254 184-448 194v-148" id="R"/><path d="M1065-1013c47 164 49 500-1 665C999-130 875 20 611 20c-377 0-484-300-487-695-2-245 41-425 141-551 77-98 191-144 352-144 261 0 386 140 448 357zM741-155c199-92 203-504 159-785-26-168-96-284-283-284-281 0-308 256-311 549-2 181 18 324 80 428 46 77 115 118 227 120 47 0 90-10 128-28zM496-555v-249h235v249H496" id="S"/><path d="M114 20l821-1504h178L296 20H114" id="T"/><g id="d"><use transform="matrix(0.0087890625,0,0,0.0087890625,0,0)" xlink:href="#O"/><use transform="matrix(0.0087890625,0,0,0.0087890625,10.8017578125,0)" xlink:href="#E"/><use transform="matrix(0.0087890625,0,0,0.0087890625,21.603515625,0)" xlink:href="#H"/><use transform="matrix(0.0087890625,0,0,0.0087890625,32.4052734375,0)" xlink:href="#P"/><use transform="matrix(0.0087890625,0,0,0.0087890625,43.20703125,0)" xlink:href="#Q"/><use transform="matrix(0.0087890625,0,0,0.0087890625,54.0087890625,0)" xlink:href="#R"/><use transform="matrix(0.0087890625,0,0,0.0087890625,64.810546875,0)" xlink:href="#S"/><use transform="matrix(0.0087890625,0,0,0.0087890625,75.6123046875,0)" xlink:href="#T"/><use transform="matrix(0.0087890625,0,0,0.0087890625,86.4140625,0)" xlink:href="#R"/><use transform="matrix(0.0087890625,0,0,0.0087890625,97.2158203125,0)" xlink:href="#S"/><use transform="matrix(0.0087890625,0,0,0.0087890625,108.017578125,0)" xlink:href="#S"/></g><path d="M496 0v-299h235V0H496" id="U"/><g id="e"><use transform="matrix(0.0087890625,0,0,0.0087890625,0,0)" xlink:href="#U"/><use transform="matrix(0.0087890625,0,0,0.0087890625,10.8017578125,0)" xlink:href="#U"/><use transform="matrix(0.0087890625,0,0,0.0087890625,21.603515625,0)" xlink:href="#U"/></g><path d="M473-1349c438-1 655 221 652 661C1122-268 945-8 532 0H162v-1349h311zm42 1193c308-4 416-205 418-532 2-330-131-509-459-505H353v1037h162" id="V"/><path d="M682 16c-209 0-323-80-324-285v-671H190v-142h170l58-282h120v282h432v142H538v652c2 114 60 155 182 155 106 0 209-16 297-34v137C921-4 806 16 682 16" id="W"/><path d="M736-142h380V0H134v-142h422v-1200H267v-142h469v1342" id="X"/><path d="M865-914c-3-187-2-380-2-570h180v1261c0 76 1 155 6 223H877c-8-49-9-116-10-174h-5C801-44 708 26 530 26c-135 0-234-46-297-139s-95-232-95-419c0-377 131-566 392-566 176 0 271 63 335 184zm-286-51c-222 0-255 197-255 427 0 229 31 425 253 425 237 0 286-195 286-441 0-238-52-411-284-411" id="Y"/><path d="M1048-32c-2 300-135 456-433 456-222-1-358-88-400-267l184-25c22 99 100 157 222 156 184-2 248-125 248-315 0-64 3-133-2-194C807-100 706-13 524-12c-306 0-381-228-381-537 0-318 85-550 400-550 164 0 271 83 325 202h3c1-60 3-134 12-185h171c-13 339-4 702-6 1050zM585-145c210-8 284-178 284-406 0-192-52-331-177-392-33-16-69-22-104-22-223 2-259 184-259 414 0 229 31 415 256 406" id="Z"/><g id="f"><use transform="matrix(0.0087890625,0,0,0.0087890625,0,0)" xlink:href="#V"/><use transform="matrix(0.0087890625,0,0,0.0087890625,10.8017578125,0)" xlink:href="#I"/><use transform="matrix(0.0087890625,0,0,0.0087890625,21.603515625,0)" xlink:href="#W"/><use transform="matrix(0.0087890625,0,0,0.0087890625,32.4052734375,0)" xlink:href="#I"/><use transform="matrix(0.0087890625,0,0,0.0087890625,43.20703125,0)" xlink:href="#X"/><use transform="matrix(0.0087890625,0,0,0.0087890625,54.0087890625,0)" xlink:href="#M"/><use transform="matrix(0.0087890625,0,0,0.0087890625,64.810546875,0)" xlink:href="#I"/><use transform="matrix(0.0087890625,0,0,0.0087890625,75.6123046875,0)" xlink:href="#Y"/><use transform="matrix(0.0087890625,0,0,0.0087890625,86.4140625,0)" xlink:href="#L"/><use transform="matrix(0.0087890625,0,0,0.0087890625,97.2158203125,0)" xlink:href="#N"/><use transform="matrix(0.0087890625,0,0,0.0087890625,108.017578125,0)" xlink:href="#Z"/></g><path d="M1185-10c-31 14-68 22-113 22-124 0-203-61-264-129C724-42 619 20 461 20 200 20 43-104 43-358c0-228 139-336 292-419-39-78-75-168-75-282 0-203 140-298 351-298 187 0 321 82 321 267 0 171-134 237-256 300-48 25-99 46-151 68 81 143 170 272 277 389 58-121 99-249 125-406l145 43c-31 176-94 329-162 462 55 77 161 133 275 89v135zM608-1236c-120 0-196 61-200 180-3 86 32 168 61 224 107-48 224-83 287-170 16-24 24-52 24-83 0-101-70-151-172-151zM211-362c-1 185 142 283 333 242 68-15 121-54 162-97-116-130-227-285-316-441-102 56-178 147-179 296" id="aa"/><use transform="matrix(0.0087890625,0,0,0.0087890625,0,0)" xlink:href="#aa" id="g"/><path d="M698-1104c312 3 392 244 392 558 0 315-82 566-392 566-169 0-277-65-331-184h-5c8 188 2 394 4 589H185V-858c0-76-1-156-6-224h175c6 52 9 120 10 178h4c58-122 150-202 330-200zm-49 991c225 0 255-203 255-433 0-225-32-419-253-419-236 0-285 192-285 441 0 237 53 411 283 411" id="ab"/><path d="M839-1102c70 0 148 7 206 17v167c-112-18-268-36-363 15-129 69-208 203-208 395V0H294c-10-367 32-789-52-1082h171c21 75 41 161 48 250h5c67-152 152-270 373-270" id="ac"/><path d="M617-1102c355 0 481 238 477 599H322c5 222 84 388 301 388 144 0 244-59 284-166l158 45C1002-72 854 20 623 20c-342 0-490-220-490-568 0-346 151-554 484-554zm291 461c-18-192-90-328-289-328-194 0-287 128-295 328h584" id="ad"/><path d="M631 20c-350 0-501-215-501-562 0-355 162-560 502-560 250 0 399 118 446 323l-192 14c-23-124-109-196-262-196-242 0-305 171-305 415 1 245 61 427 304 427 151 0 248-77 267-215l190 12C1039-107 883 20 631 20" id="ae"/><g id="h"><use transform="matrix(0.0087890625,0,0,0.0087890625,0,0)" xlink:href="#ab"/><use transform="matrix(0.0087890625,0,0,0.0087890625,10.8017578125,0)" xlink:href="#ac"/><use transform="matrix(0.0087890625,0,0,0.0087890625,21.603515625,0)" xlink:href="#ad"/><use transform="matrix(0.0087890625,0,0,0.0087890625,32.4052734375,0)" xlink:href="#ab"/><use transform="matrix(0.0087890625,0,0,0.0087890625,43.20703125,0)" xlink:href="#ac"/><use transform="matrix(0.0087890625,0,0,0.0087890625,54.0087890625,0)" xlink:href="#M"/><use transform="matrix(0.0087890625,0,0,0.0087890625,64.810546875,0)" xlink:href="#ae"/><use transform="matrix(0.0087890625,0,0,0.0087890625,75.6123046875,0)" xlink:href="#ad"/><use transform="matrix(0.0087890625,0,0,0.0087890625,86.4140625,0)" xlink:href="#J"/><use transform="matrix(0.0087890625,0,0,0.0087890625,97.2158203125,0)" xlink:href="#J"/></g><path d="M655-135c108 0 195-33 260-74v-336H622v-160h479v572C981-54 839 20 639 20c-388 0-526-306-526-701 0-406 129-689 529-689 261 0 392 137 461 331l-171 56c-47-131-122-231-288-231-281 0-330 245-330 533 0 179 28 314 84 407s142 139 257 139" id="af"/><g id="i"><use transform="matrix(0.0087890625,0,0,0.0087890625,0,0)" xlink:href="#af"/><use transform="matrix(0.0087890625,0,0,0.0087890625,10.8017578125,0)" xlink:href="#ad"/><use transform="matrix(0.0087890625,0,0,0.0087890625,21.603515625,0)" xlink:href="#N"/><use transform="matrix(0.0087890625,0,0,0.0087890625,32.4052734375,0)" xlink:href="#ad"/><use transform="matrix(0.0087890625,0,0,0.0087890625,43.20703125,0)" xlink:href="#ac"/><use transform="matrix(0.0087890625,0,0,0.0087890625,54.0087890625,0)" xlink:href="#I"/><use transform="matrix(0.0087890625,0,0,0.0087890625,64.810546875,0)" xlink:href="#X"/></g><g id="j"><use transform="matrix(0.0087890625,0,0,0.0087890625,0,0)" xlink:href="#D"/><use transform="matrix(0.0087890625,0,0,0.0087890625,10.8017578125,0)" xlink:href="#D"/></g><path d="M365-904c58-129 161-200 334-200 130 0 228 46 293 138s98 233 98 420c0 189-34 331-102 425S824 20 698 20c-170 0-275-64-336-184 0 55-3 116-9 164H179c5-68 6-147 6-223v-1261h180c-2 193 4 394-4 580h4zm283 791c221 0 256-197 256-427 0-229-34-425-254-425-236 0-285 195-285 441 0 237 53 411 283 411" id="ag"/><path d="M390 276c167 0 266-82 266-251v-965H249v-142h587V28c-4 270-165 397-431 397-107 0-208-16-288-43V242c80 18 173 34 273 34zm246-1568v-192h200v192H636" id="ah"/><g id="k"><use transform="matrix(0.0087890625,0,0,0.0087890625,0,0)" xlink:href="#M"/><use transform="matrix(0.0087890625,0,0,0.0087890625,10.8017578125,0)" xlink:href="#ag"/><use transform="matrix(0.0087890625,0,0,0.0087890625,21.603515625,0)" xlink:href="#ah"/><use transform="matrix(0.0087890625,0,0,0.0087890625,32.4052734375,0)" xlink:href="#ad"/><use transform="matrix(0.0087890625,0,0,0.0087890625,43.20703125,0)" xlink:href="#ae"/><use transform="matrix(0.0087890625,0,0,0.0087890625,54.0087890625,0)" xlink:href="#W"/></g><path d="M1018 0H814c-67-224-138-444-200-673C552-442 476-224 407 0H204L21-1082h178c43 310 105 601 126 933 54-225 128-425 193-638h193c63 212 134 415 185 638 22-336 90-622 136-933h176" id="ai"/><g id="l"><use transform="matrix(0.0087890625,0,0,0.0087890625,0,0)" xlink:href="#ai"/><use transform="matrix(0.0087890625,0,0,0.0087890625,10.8017578125,0)" xlink:href="#L"/><use transform="matrix(0.0087890625,0,0,0.0087890625,21.603515625,0)" xlink:href="#W"/><use transform="matrix(0.0087890625,0,0,0.0087890625,32.4052734375,0)" xlink:href="#K"/></g><path d="M168 279c222 39 310-114 368-290L66-1082h192c120 299 249 590 362 896 115-301 235-597 351-896h190L705 0c-65 164-130 320-275 396-67 36-177 35-262 18V279" id="aj"/><g id="m"><use transform="matrix(0.0087890625,0,0,0.0087890625,0,0)" xlink:href="#ad"/><use transform="matrix(0.0087890625,0,0,0.0087890625,10.8017578125,0)" xlink:href="#I"/><use transform="matrix(0.0087890625,0,0,0.0087890625,21.603515625,0)" xlink:href="#J"/><use transform="matrix(0.0087890625,0,0,0.0087890625,32.4052734375,0)" xlink:href="#aj"/></g><path d="M237 0v-1349h191v1193h672V0H237" id="ak"/><path d="M622-1349c296 4 497 117 497 404 0 282-193 424-485 431H353V0H162v-1349h460zm-15 684c195-3 320-88 320-277 0-184-129-255-328-254H353v531h254" id="al"/><path d="M604-135c236 0 291-142 291-376v-838h190v859c5 340-142 510-480 510-326 0-463-164-463-492v-877h191v851c-3 222 46 363 271 363" id="am"/><g id="n"><use transform="matrix(0.0087890625,0,0,0.0087890625,0,0)" xlink:href="#F"/><use transform="matrix(0.0087890625,0,0,0.0087890625,10.8017578125,0)" xlink:href="#aa"/><use transform="matrix(0.0087890625,0,0,0.0087890625,21.603515625,0)" xlink:href="#ak"/><use transform="matrix(0.0087890625,0,0,0.0087890625,32.4052734375,0)" xlink:href="#T"/><use transform="matrix(0.0087890625,0,0,0.0087890625,43.20703125,0)" xlink:href="#X"/><use transform="matrix(0.0087890625,0,0,0.0087890625,54.0087890625,0)" xlink:href="#M"/><use transform="matrix(0.0087890625,0,0,0.0087890625,64.810546875,0)" xlink:href="#Z"/><use transform="matrix(0.0087890625,0,0,0.0087890625,75.6123046875,0)" xlink:href="#T"/><use transform="matrix(0.0087890625,0,0,0.0087890625,86.4140625,0)" xlink:href="#af"/><use transform="matrix(0.0087890625,0,0,0.0087890625,97.2158203125,0)" xlink:href="#al"/><use transform="matrix(0.0087890625,0,0,0.0087890625,108.017578125,0)" xlink:href="#am"/></g><g id="o"><use transform="matrix(0.0087890625,0,0,0.0087890625,0,0)" xlink:href="#I"/><use transform="matrix(0.0087890625,0,0,0.0087890625,10.8017578125,0)" xlink:href="#ae"/><use transform="matrix(0.0087890625,0,0,0.0087890625,21.603515625,0)" xlink:href="#ae"/><use transform="matrix(0.0087890625,0,0,0.0087890625,32.4052734375,0)" xlink:href="#ad"/><use transform="matrix(0.0087890625,0,0,0.0087890625,43.20703125,0)" xlink:href="#J"/><use transform="matrix(0.0087890625,0,0,0.0087890625,54.0087890625,0)" xlink:href="#J"/></g><g id="p"><use transform="matrix(0.0087890625,0,0,0.0087890625,0,0)" xlink:href="#ae"/><use transform="matrix(0.0087890625,0,0,0.0087890625,10.8017578125,0)" xlink:href="#I"/><use transform="matrix(0.0087890625,0,0,0.0087890625,21.603515625,0)" xlink:href="#ab"/><use transform="matrix(0.0087890625,0,0,0.0087890625,32.4052734375,0)" xlink:href="#I"/><use transform="matrix(0.0087890625,0,0,0.0087890625,43.20703125,0)" xlink:href="#ag"/><use transform="matrix(0.0087890625,0,0,0.0087890625,54.0087890625,0)" xlink:href="#L"/><use transform="matrix(0.0087890625,0,0,0.0087890625,64.810546875,0)" xlink:href="#X"/><use transform="matrix(0.0087890625,0,0,0.0087890625,75.6123046875,0)" xlink:href="#L"/><use transform="matrix(0.0087890625,0,0,0.0087890625,86.4140625,0)" xlink:href="#W"/><use transform="matrix(0.0087890625,0,0,0.0087890625,97.2158203125,0)" xlink:href="#aj"/></g><path d="M528 20c-247 0-343-132-343-381v-721h180v686c-4 177 45 284 224 277 194-8 279-136 279-336v-627h181c3 360-6 732 6 1082H885c-4-54-7-126-8-185h-3C809-64 714 20 528 20" id="an"/><path d="M904-1102c199 0 220 177 220 381V0H956v-686c-3-114 0-215-60-264-70-33-125-4-158 71-26 56-39 140-39 252V0H531v-686c-3-114-1-215-61-264-78-41-136 24-157 84-24 69-39 159-39 259V0H105c-3-360 6-732-6-1082h149c6 50 3 123 8 175 36-100 83-195 216-195 135 0 166 79 196 196 42-105 93-196 236-196" id="ao"/><path d="M147 0v-137l681-806H187v-139h844v137L349-139h719V0H147" id="ap"/><g id="q"><use transform="matrix(0.0087890625,0,0,0.0087890625,0,0)" xlink:href="#ae"/><use transform="matrix(0.0087890625,0,0,0.0087890625,10.8017578125,0)" xlink:href="#an"/><use transform="matrix(0.0087890625,0,0,0.0087890625,21.603515625,0)" xlink:href="#J"/><use transform="matrix(0.0087890625,0,0,0.0087890625,32.4052734375,0)" xlink:href="#W"/><use transform="matrix(0.0087890625,0,0,0.0087890625,43.20703125,0)" xlink:href="#M"/><use transform="matrix(0.0087890625,0,0,0.0087890625,54.0087890625,0)" xlink:href="#ao"/><use transform="matrix(0.0087890625,0,0,0.0087890625,64.810546875,0)" xlink:href="#L"/><use transform="matrix(0.0087890625,0,0,0.0087890625,75.6123046875,0)" xlink:href="#ap"/><use transform="matrix(0.0087890625,0,0,0.0087890625,86.4140625,0)" xlink:href="#I"/><use transform="matrix(0.0087890625,0,0,0.0087890625,97.2158203125,0)" xlink:href="#ag"/><use transform="matrix(0.0087890625,0,0,0.0087890625,108.017578125,0)" xlink:href="#X"/><use transform="matrix(0.0087890625,0,0,0.0087890625,118.8193359375,0)" xlink:href="#ad"/></g><g id="r"><use transform="matrix(0.0087890625,0,0,0.0087890625,0,0)" xlink:href="#O"/><use transform="matrix(0.0087890625,0,0,0.0087890625,10.8017578125,0)" xlink:href="#D"/><use transform="matrix(0.0087890625,0,0,0.0087890625,21.603515625,0)" xlink:href="#D"/></g><g id="s"><use transform="matrix(0.0087890625,0,0,0.0087890625,0,0)" xlink:href="#J"/><use transform="matrix(0.0087890625,0,0,0.0087890625,10.8017578125,0)" xlink:href="#W"/><use transform="matrix(0.0087890625,0,0,0.0087890625,21.603515625,0)" xlink:href="#ac"/><use transform="matrix(0.0087890625,0,0,0.0087890625,32.4052734375,0)" xlink:href="#an"/><use transform="matrix(0.0087890625,0,0,0.0087890625,43.20703125,0)" xlink:href="#ae"/><use transform="matrix(0.0087890625,0,0,0.0087890625,54.0087890625,0)" xlink:href="#W"/><use transform="matrix(0.0087890625,0,0,0.0087890625,64.810546875,0)" xlink:href="#an"/><use transform="matrix(0.0087890625,0,0,0.0087890625,75.6123046875,0)" xlink:href="#ac"/><use transform="matrix(0.0087890625,0,0,0.0087890625,86.4140625,0)" xlink:href="#ad"/></g><g id="t"><use transform="matrix(0.0087890625,0,0,0.0087890625,0,0)" xlink:href="#G"/><use transform="matrix(0.0087890625,0,0,0.0087890625,10.8017578125,0)" xlink:href="#ac"/><use transform="matrix(0.0087890625,0,0,0.0087890625,21.603515625,0)" xlink:href="#I"/><use transform="matrix(0.0087890625,0,0,0.0087890625,32.4052734375,0)" xlink:href="#L"/><use transform="matrix(0.0087890625,0,0,0.0087890625,43.20703125,0)" xlink:href="#N"/></g><path d="M102-681c0-398 126-689 513-689 165 0 291 58 379 174s132 287 132 515c-1 318-88 554-298 657-123 61-317 58-438-3-206-104-288-341-288-654zm749 406c94-160 97-656-5-807-57-85-130-132-231-132-104 0-178 47-234 132-101 153-99 655 1 809 57 89 130 138 232 138 109 0 184-49 237-140" id="aq"/><g id="u"><use transform="matrix(0.0087890625,0,0,0.0087890625,0,0)" xlink:href="#aq"/><use transform="matrix(0.0087890625,0,0,0.0087890625,10.8017578125,0)" xlink:href="#ab"/><use transform="matrix(0.0087890625,0,0,0.0087890625,21.603515625,0)" xlink:href="#W"/><use transform="matrix(0.0087890625,0,0,0.0087890625,32.4052734375,0)" xlink:href="#L"/><use transform="matrix(0.0087890625,0,0,0.0087890625,43.20703125,0)" xlink:href="#ao"/><use transform="matrix(0.0087890625,0,0,0.0087890625,54.0087890625,0)" xlink:href="#L"/><use transform="matrix(0.0087890625,0,0,0.0087890625,64.810546875,0)" xlink:href="#ap"/><use transform="matrix(0.0087890625,0,0,0.0087890625,75.6123046875,0)" xlink:href="#ad"/><use transform="matrix(0.0087890625,0,0,0.0087890625,86.4140625,0)" xlink:href="#ac"/></g><g id="v"><use transform="matrix(0.0087890625,0,0,0.0087890625,0,0)" xlink:href="#D"/><use transform="matrix(0.0087890625,0,0,0.0087890625,10.8017578125,0)" xlink:href="#M"/><use transform="matrix(0.0087890625,0,0,0.0087890625,21.603515625,0)" xlink:href="#ac"/><use transform="matrix(0.0087890625,0,0,0.0087890625,32.4052734375,0)" xlink:href="#ao"/></g><g id="w"><use transform="matrix(0.0087890625,0,0,0.0087890625,0,0)" xlink:href="#G"/><use transform="matrix(0.0087890625,0,0,0.0087890625,10.8017578125,0)" xlink:href="#ad"/><use transform="matrix(0.0087890625,0,0,0.0087890625,21.603515625,0)" xlink:href="#J"/><use transform="matrix(0.0087890625,0,0,0.0087890625,32.4052734375,0)" xlink:href="#W"/></g><path d="M713 0H515L10-1349h201C345-955 498-579 615-168c116-411 269-787 402-1181h201" id="ar"/><g id="x"><use transform="matrix(0.0087890625,0,0,0.0087890625,0,0)" xlink:href="#ar"/><use transform="matrix(0.0087890625,0,0,0.0087890625,10.8017578125,0)" xlink:href="#L"/><use transform="matrix(0.0087890625,0,0,0.0087890625,21.603515625,0)" xlink:href="#J"/><use transform="matrix(0.0087890625,0,0,0.0087890625,32.4052734375,0)" xlink:href="#an"/><use transform="matrix(0.0087890625,0,0,0.0087890625,43.20703125,0)" xlink:href="#I"/><use transform="matrix(0.0087890625,0,0,0.0087890625,54.0087890625,0)" xlink:href="#X"/><use transform="matrix(0.0087890625,0,0,0.0087890625,64.810546875,0)" xlink:href="#L"/><use transform="matrix(0.0087890625,0,0,0.0087890625,75.6123046875,0)" xlink:href="#ap"/><use transform="matrix(0.0087890625,0,0,0.0087890625,86.4140625,0)" xlink:href="#I"/><use transform="matrix(0.0087890625,0,0,0.0087890625,97.2158203125,0)" xlink:href="#W"/><use transform="matrix(0.0087890625,0,0,0.0087890625,108.017578125,0)" xlink:href="#L"/><use transform="matrix(0.0087890625,0,0,0.0087890625,118.8193359375,0)" xlink:href="#M"/><use transform="matrix(0.0087890625,0,0,0.0087890625,129.62109375,0)" xlink:href="#N"/></g><path d="M715 0H502L69-1082h202c94 253 197 500 285 758 19 57 36 126 52 183 96-335 234-626 350-941h201" id="as"/><g id="y"><use transform="matrix(0.0087890625,0,0,0.0087890625,0,0)" xlink:href="#P"/><use transform="matrix(0.0087890625,0,0,0.0087890625,10.8017578125,0)" xlink:href="#Y"/><use transform="matrix(0.0087890625,0,0,0.0087890625,21.603515625,0)" xlink:href="#as"/><use transform="matrix(0.0087890625,0,0,0.0087890625,32.4052734375,0)" xlink:href="#ad"/><use transform="matrix(0.0087890625,0,0,0.0087890625,43.20703125,0)" xlink:href="#ac"/><use transform="matrix(0.0087890625,0,0,0.0087890625,54.0087890625,0)" xlink:href="#J"/><use transform="matrix(0.0087890625,0,0,0.0087890625,64.810546875,0)" xlink:href="#I"/><use transform="matrix(0.0087890625,0,0,0.0087890625,75.6123046875,0)" xlink:href="#ac"/><use transform="matrix(0.0087890625,0,0,0.0087890625,86.4140625,0)" xlink:href="#L"/><use transform="matrix(0.0087890625,0,0,0.0087890625,97.2158203125,0)" xlink:href="#I"/><use transform="matrix(0.0087890625,0,0,0.0087890625,108.017578125,0)" xlink:href="#X"/></g><g id="z"><use transform="matrix(0.0087890625,0,0,0.0087890625,0,0)" xlink:href="#F"/><use transform="matrix(0.0087890625,0,0,0.0087890625,10.8017578125,0)" xlink:href="#I"/><use transform="matrix(0.0087890625,0,0,0.0087890625,21.603515625,0)" xlink:href="#ao"/><use transform="matrix(0.0087890625,0,0,0.0087890625,32.4052734375,0)" xlink:href="#ab"/><use transform="matrix(0.0087890625,0,0,0.0087890625,43.20703125,0)" xlink:href="#X"/><use transform="matrix(0.0087890625,0,0,0.0087890625,54.0087890625,0)" xlink:href="#ad"/></g><g id="A"><use transform="matrix(0.0087890625,0,0,0.0087890625,0,0)" xlink:href="#af"/><use transform="matrix(0.0087890625,0,0,0.0087890625,10.8017578125,0)" xlink:href="#ad"/><use transform="matrix(0.0087890625,0,0,0.0087890625,21.603515625,0)" xlink:href="#N"/><use transform="matrix(0.0087890625,0,0,0.0087890625,32.4052734375,0)" xlink:href="#ad"/><use transform="matrix(0.0087890625,0,0,0.0087890625,43.20703125,0)" xlink:href="#ac"/><use transform="matrix(0.0087890625,0,0,0.0087890625,54.0087890625,0)" xlink:href="#I"/><use transform="matrix(0.0087890625,0,0,0.0087890625,64.810546875,0)" xlink:href="#W"/><use transform="matrix(0.0087890625,0,0,0.0087890625,75.6123046875,0)" xlink:href="#M"/><use transform="matrix(0.0087890625,0,0,0.0087890625,86.4140625,0)" xlink:href="#ac"/></g><g id="B"><use transform="matrix(0.0087890625,0,0,0.0087890625,0,0)" xlink:href="#F"/><use transform="matrix(0.0087890625,0,0,0.0087890625,10.8017578125,0)" xlink:href="#I"/><use transform="matrix(0.0087890625,0,0,0.0087890625,21.603515625,0)" xlink:href="#ao"/><use transform="matrix(0.0087890625,0,0,0.0087890625,32.4052734375,0)" xlink:href="#ab"/><use transform="matrix(0.0087890625,0,0,0.0087890625,43.20703125,0)" xlink:href="#X"/><use transform="matrix(0.0087890625,0,0,0.0087890625,54.0087890625,0)" xlink:href="#ad"/><use transform="matrix(0.0087890625,0,0,0.0087890625,64.810546875,0)" xlink:href="#J"/></g></defs></g></svg>